# Units: meters. Y up.
mtllib GolfMaterials.mtl
o Flag_And_Pole
v -0.0030000 0.0000000 -0.0030000
v 0.0030000 0.0000000 -0.0030000
v 0.0030000 0.2600000 -0.0030000
v -0.0030000 0.2600000 -0.0030000
v -0.0030000 0.0000000 0.0030000
v 0.0030000 0.0000000 0.0030000
v 0.0030000 0.2600000 0.0030000
v -0.0030000 0.2600000 0.0030000
v 0.0000000 0.2500000 0.0000000
v 0.0950000 0.2250000 0.0000000
v 0.0000000 0.2000000 0.0000000
s off
usemtl Pole
f 1 4 3 2
f 5 6 7 8
f 1 5 8 4
f 2 3 7 6
f 4 8 7 3
f 1 2 6 5
usemtl Flag
f 9 10 11
f 11 10 9
