# Units: meters. Y up.
mtllib GolfMaterials.mtl
o Turf_Hole_Tile_60cm
v 0.3000000 0.0000000 0.0000000
v 0.0340000 0.0000000 0.0000000
v 0.0340000 -0.0500000 0.0000000
v 0.3000000 -0.0500000 0.0000000
v 0.3000000 0.0000000 0.0196630
v 0.0339272 0.0000000 0.0022237
v 0.0339272 -0.0500000 0.0022237
v 0.3000000 -0.0500000 0.0196630
v 0.3000000 0.0000000 0.0394957
v 0.0337091 0.0000000 0.0044379
v 0.0337091 -0.0500000 0.0044379
v 0.3000000 -0.0500000 0.0394957
v 0.3000000 0.0000000 0.0596737
v 0.0333467 0.0000000 0.0066331
v 0.0333467 -0.0500000 0.0066331
v 0.3000000 -0.0500000 0.0596737
v 0.3000000 0.0000000 0.0803848
v 0.0328415 0.0000000 0.0087998
v 0.0328415 -0.0500000 0.0087998
v 0.3000000 -0.0500000 0.0803848
v 0.3000000 0.0000000 0.1018363
v 0.0321956 0.0000000 0.0109289
v 0.0321956 -0.0500000 0.0109289
v 0.3000000 -0.0500000 0.1018363
v 0.3000000 0.0000000 0.1242641
v 0.0314119 0.0000000 0.0130112
v 0.0314119 -0.0500000 0.0130112
v 0.3000000 -0.0500000 0.1242641
v 0.3000000 0.0000000 0.1479436
v 0.0304937 0.0000000 0.0150378
v 0.0304937 -0.0500000 0.0150378
v 0.3000000 -0.0500000 0.1479436
v 0.3000000 0.0000000 0.1732051
v 0.0294449 0.0000000 0.0170000
v 0.0294449 -0.0500000 0.0170000
v 0.3000000 -0.0500000 0.1732051
v 0.3000000 0.0000000 0.2004536
v 0.0282700 0.0000000 0.0188894
v 0.0282700 -0.0500000 0.0188894
v 0.3000000 -0.0500000 0.2004536
v 0.3000000 0.0000000 0.2301981
v 0.0269740 0.0000000 0.0206979
v 0.0269740 -0.0500000 0.0206979
v 0.3000000 -0.0500000 0.2301981
v 0.3000000 0.0000000 0.2630929
v 0.0255626 0.0000000 0.0224178
v 0.0255626 -0.0500000 0.0224178
v 0.3000000 -0.0500000 0.2630929
v 0.3000000 0.0000000 0.3000000
v 0.0240416 0.0000000 0.0240416
v 0.0240416 -0.0500000 0.0240416
v 0.3000000 -0.0500000 0.3000000
v 0.2630929 0.0000000 0.3000000
v 0.0224178 0.0000000 0.0255626
v 0.0224178 -0.0500000 0.0255626
v 0.2630929 -0.0500000 0.3000000
v 0.2301981 0.0000000 0.3000000
v 0.0206979 0.0000000 0.0269740
v 0.0206979 -0.0500000 0.0269740
v 0.2301981 -0.0500000 0.3000000
v 0.2004536 0.0000000 0.3000000
v 0.0188894 0.0000000 0.0282700
v 0.0188894 -0.0500000 0.0282700
v 0.2004536 -0.0500000 0.3000000
v 0.1732051 0.0000000 0.3000000
v 0.0170000 0.0000000 0.0294449
v 0.0170000 -0.0500000 0.0294449
v 0.1732051 -0.0500000 0.3000000
v 0.1479436 0.0000000 0.3000000
v 0.0150378 0.0000000 0.0304937
v 0.0150378 -0.0500000 0.0304937
v 0.1479436 -0.0500000 0.3000000
v 0.1242641 0.0000000 0.3000000
v 0.0130112 0.0000000 0.0314119
v 0.0130112 -0.0500000 0.0314119
v 0.1242641 -0.0500000 0.3000000
v 0.1018363 0.0000000 0.3000000
v 0.0109289 0.0000000 0.0321956
v 0.0109289 -0.0500000 0.0321956
v 0.1018363 -0.0500000 0.3000000
v 0.0803848 0.0000000 0.3000000
v 0.0087998 0.0000000 0.0328415
v 0.0087998 -0.0500000 0.0328415
v 0.0803848 -0.0500000 0.3000000
v 0.0596737 0.0000000 0.3000000
v 0.0066331 0.0000000 0.0333467
v 0.0066331 -0.0500000 0.0333467
v 0.0596737 -0.0500000 0.3000000
v 0.0394957 0.0000000 0.3000000
v 0.0044379 0.0000000 0.0337091
v 0.0044379 -0.0500000 0.0337091
v 0.0394957 -0.0500000 0.3000000
v 0.0196630 0.0000000 0.3000000
v 0.0022237 0.0000000 0.0339272
v 0.0022237 -0.0500000 0.0339272
v 0.0196630 -0.0500000 0.3000000
v 0.0000000 0.0000000 0.3000000
v 0.0000000 0.0000000 0.0340000
v 0.0000000 -0.0500000 0.0340000
v 0.0000000 -0.0500000 0.3000000
v -0.0196630 0.0000000 0.3000000
v -0.0022237 0.0000000 0.0339272
v -0.0022237 -0.0500000 0.0339272
v -0.0196630 -0.0500000 0.3000000
v -0.0394957 0.0000000 0.3000000
v -0.0044379 0.0000000 0.0337091
v -0.0044379 -0.0500000 0.0337091
v -0.0394957 -0.0500000 0.3000000
v -0.0596737 0.0000000 0.3000000
v -0.0066331 0.0000000 0.0333467
v -0.0066331 -0.0500000 0.0333467
v -0.0596737 -0.0500000 0.3000000
v -0.0803848 0.0000000 0.3000000
v -0.0087998 0.0000000 0.0328415
v -0.0087998 -0.0500000 0.0328415
v -0.0803848 -0.0500000 0.3000000
v -0.1018363 0.0000000 0.3000000
v -0.0109289 0.0000000 0.0321956
v -0.0109289 -0.0500000 0.0321956
v -0.1018363 -0.0500000 0.3000000
v -0.1242641 0.0000000 0.3000000
v -0.0130112 0.0000000 0.0314119
v -0.0130112 -0.0500000 0.0314119
v -0.1242641 -0.0500000 0.3000000
v -0.1479436 0.0000000 0.3000000
v -0.0150378 0.0000000 0.0304937
v -0.0150378 -0.0500000 0.0304937
v -0.1479436 -0.0500000 0.3000000
v -0.1732051 0.0000000 0.3000000
v -0.0170000 0.0000000 0.0294449
v -0.0170000 -0.0500000 0.0294449
v -0.1732051 -0.0500000 0.3000000
v -0.2004536 0.0000000 0.3000000
v -0.0188894 0.0000000 0.0282700
v -0.0188894 -0.0500000 0.0282700
v -0.2004536 -0.0500000 0.3000000
v -0.2301981 0.0000000 0.3000000
v -0.0206979 0.0000000 0.0269740
v -0.0206979 -0.0500000 0.0269740
v -0.2301981 -0.0500000 0.3000000
v -0.2630929 0.0000000 0.3000000
v -0.0224178 0.0000000 0.0255626
v -0.0224178 -0.0500000 0.0255626
v -0.2630929 -0.0500000 0.3000000
v -0.3000000 0.0000000 0.3000000
v -0.0240416 0.0000000 0.0240416
v -0.0240416 -0.0500000 0.0240416
v -0.3000000 -0.0500000 0.3000000
v -0.3000000 0.0000000 0.2630929
v -0.0255626 0.0000000 0.0224178
v -0.0255626 -0.0500000 0.0224178
v -0.3000000 -0.0500000 0.2630929
v -0.3000000 0.0000000 0.2301981
v -0.0269740 0.0000000 0.0206979
v -0.0269740 -0.0500000 0.0206979
v -0.3000000 -0.0500000 0.2301981
v -0.3000000 0.0000000 0.2004536
v -0.0282700 0.0000000 0.0188894
v -0.0282700 -0.0500000 0.0188894
v -0.3000000 -0.0500000 0.2004536
v -0.3000000 0.0000000 0.1732051
v -0.0294449 0.0000000 0.0170000
v -0.0294449 -0.0500000 0.0170000
v -0.3000000 -0.0500000 0.1732051
v -0.3000000 0.0000000 0.1479436
v -0.0304937 0.0000000 0.0150378
v -0.0304937 -0.0500000 0.0150378
v -0.3000000 -0.0500000 0.1479436
v -0.3000000 0.0000000 0.1242641
v -0.0314119 0.0000000 0.0130112
v -0.0314119 -0.0500000 0.0130112
v -0.3000000 -0.0500000 0.1242641
v -0.3000000 0.0000000 0.1018363
v -0.0321956 0.0000000 0.0109289
v -0.0321956 -0.0500000 0.0109289
v -0.3000000 -0.0500000 0.1018363
v -0.3000000 0.0000000 0.0803848
v -0.0328415 0.0000000 0.0087998
v -0.0328415 -0.0500000 0.0087998
v -0.3000000 -0.0500000 0.0803848
v -0.3000000 0.0000000 0.0596737
v -0.0333467 0.0000000 0.0066331
v -0.0333467 -0.0500000 0.0066331
v -0.3000000 -0.0500000 0.0596737
v -0.3000000 0.0000000 0.0394957
v -0.0337091 0.0000000 0.0044379
v -0.0337091 -0.0500000 0.0044379
v -0.3000000 -0.0500000 0.0394957
v -0.3000000 0.0000000 0.0196630
v -0.0339272 0.0000000 0.0022237
v -0.0339272 -0.0500000 0.0022237
v -0.3000000 -0.0500000 0.0196630
v -0.3000000 0.0000000 0.0000000
v -0.0340000 0.0000000 0.0000000
v -0.0340000 -0.0500000 0.0000000
v -0.3000000 -0.0500000 0.0000000
v -0.3000000 0.0000000 -0.0196630
v -0.0339272 0.0000000 -0.0022237
v -0.0339272 -0.0500000 -0.0022237
v -0.3000000 -0.0500000 -0.0196630
v -0.3000000 0.0000000 -0.0394957
v -0.0337091 0.0000000 -0.0044379
v -0.0337091 -0.0500000 -0.0044379
v -0.3000000 -0.0500000 -0.0394957
v -0.3000000 0.0000000 -0.0596737
v -0.0333467 0.0000000 -0.0066331
v -0.0333467 -0.0500000 -0.0066331
v -0.3000000 -0.0500000 -0.0596737
v -0.3000000 0.0000000 -0.0803848
v -0.0328415 0.0000000 -0.0087998
v -0.0328415 -0.0500000 -0.0087998
v -0.3000000 -0.0500000 -0.0803848
v -0.3000000 0.0000000 -0.1018363
v -0.0321956 0.0000000 -0.0109289
v -0.0321956 -0.0500000 -0.0109289
v -0.3000000 -0.0500000 -0.1018363
v -0.3000000 0.0000000 -0.1242641
v -0.0314119 0.0000000 -0.0130112
v -0.0314119 -0.0500000 -0.0130112
v -0.3000000 -0.0500000 -0.1242641
v -0.3000000 0.0000000 -0.1479436
v -0.0304937 0.0000000 -0.0150378
v -0.0304937 -0.0500000 -0.0150378
v -0.3000000 -0.0500000 -0.1479436
v -0.3000000 0.0000000 -0.1732051
v -0.0294449 0.0000000 -0.0170000
v -0.0294449 -0.0500000 -0.0170000
v -0.3000000 -0.0500000 -0.1732051
v -0.3000000 0.0000000 -0.2004536
v -0.0282700 0.0000000 -0.0188894
v -0.0282700 -0.0500000 -0.0188894
v -0.3000000 -0.0500000 -0.2004536
v -0.3000000 0.0000000 -0.2301981
v -0.0269740 0.0000000 -0.0206979
v -0.0269740 -0.0500000 -0.0206979
v -0.3000000 -0.0500000 -0.2301981
v -0.3000000 0.0000000 -0.2630929
v -0.0255626 0.0000000 -0.0224178
v -0.0255626 -0.0500000 -0.0224178
v -0.3000000 -0.0500000 -0.2630929
v -0.3000000 0.0000000 -0.3000000
v -0.0240416 0.0000000 -0.0240416
v -0.0240416 -0.0500000 -0.0240416
v -0.3000000 -0.0500000 -0.3000000
v -0.2630929 0.0000000 -0.3000000
v -0.0224178 0.0000000 -0.0255626
v -0.0224178 -0.0500000 -0.0255626
v -0.2630929 -0.0500000 -0.3000000
v -0.2301981 0.0000000 -0.3000000
v -0.0206979 0.0000000 -0.0269740
v -0.0206979 -0.0500000 -0.0269740
v -0.2301981 -0.0500000 -0.3000000
v -0.2004536 0.0000000 -0.3000000
v -0.0188894 0.0000000 -0.0282700
v -0.0188894 -0.0500000 -0.0282700
v -0.2004536 -0.0500000 -0.3000000
v -0.1732051 0.0000000 -0.3000000
v -0.0170000 0.0000000 -0.0294449
v -0.0170000 -0.0500000 -0.0294449
v -0.1732051 -0.0500000 -0.3000000
v -0.1479436 0.0000000 -0.3000000
v -0.0150378 0.0000000 -0.0304937
v -0.0150378 -0.0500000 -0.0304937
v -0.1479436 -0.0500000 -0.3000000
v -0.1242641 0.0000000 -0.3000000
v -0.0130112 0.0000000 -0.0314119
v -0.0130112 -0.0500000 -0.0314119
v -0.1242641 -0.0500000 -0.3000000
v -0.1018363 0.0000000 -0.3000000
v -0.0109289 0.0000000 -0.0321956
v -0.0109289 -0.0500000 -0.0321956
v -0.1018363 -0.0500000 -0.3000000
v -0.0803848 0.0000000 -0.3000000
v -0.0087998 0.0000000 -0.0328415
v -0.0087998 -0.0500000 -0.0328415
v -0.0803848 -0.0500000 -0.3000000
v -0.0596737 0.0000000 -0.3000000
v -0.0066331 0.0000000 -0.0333467
v -0.0066331 -0.0500000 -0.0333467
v -0.0596737 -0.0500000 -0.3000000
v -0.0394957 0.0000000 -0.3000000
v -0.0044379 0.0000000 -0.0337091
v -0.0044379 -0.0500000 -0.0337091
v -0.0394957 -0.0500000 -0.3000000
v -0.0196630 0.0000000 -0.3000000
v -0.0022237 0.0000000 -0.0339272
v -0.0022237 -0.0500000 -0.0339272
v -0.0196630 -0.0500000 -0.3000000
v -0.0000000 0.0000000 -0.3000000
v -0.0000000 0.0000000 -0.0340000
v -0.0000000 -0.0500000 -0.0340000
v -0.0000000 -0.0500000 -0.3000000
v 0.0196630 0.0000000 -0.3000000
v 0.0022237 0.0000000 -0.0339272
v 0.0022237 -0.0500000 -0.0339272
v 0.0196630 -0.0500000 -0.3000000
v 0.0394957 0.0000000 -0.3000000
v 0.0044379 0.0000000 -0.0337091
v 0.0044379 -0.0500000 -0.0337091
v 0.0394957 -0.0500000 -0.3000000
v 0.0596737 0.0000000 -0.3000000
v 0.0066331 0.0000000 -0.0333467
v 0.0066331 -0.0500000 -0.0333467
v 0.0596737 -0.0500000 -0.3000000
v 0.0803848 0.0000000 -0.3000000
v 0.0087998 0.0000000 -0.0328415
v 0.0087998 -0.0500000 -0.0328415
v 0.0803848 -0.0500000 -0.3000000
v 0.1018363 0.0000000 -0.3000000
v 0.0109289 0.0000000 -0.0321956
v 0.0109289 -0.0500000 -0.0321956
v 0.1018363 -0.0500000 -0.3000000
v 0.1242641 0.0000000 -0.3000000
v 0.0130112 0.0000000 -0.0314119
v 0.0130112 -0.0500000 -0.0314119
v 0.1242641 -0.0500000 -0.3000000
v 0.1479436 0.0000000 -0.3000000
v 0.0150378 0.0000000 -0.0304937
v 0.0150378 -0.0500000 -0.0304937
v 0.1479436 -0.0500000 -0.3000000
v 0.1732051 0.0000000 -0.3000000
v 0.0170000 0.0000000 -0.0294449
v 0.0170000 -0.0500000 -0.0294449
v 0.1732051 -0.0500000 -0.3000000
v 0.2004536 0.0000000 -0.3000000
v 0.0188894 0.0000000 -0.0282700
v 0.0188894 -0.0500000 -0.0282700
v 0.2004536 -0.0500000 -0.3000000
v 0.2301981 0.0000000 -0.3000000
v 0.0206979 0.0000000 -0.0269740
v 0.0206979 -0.0500000 -0.0269740
v 0.2301981 -0.0500000 -0.3000000
v 0.2630929 0.0000000 -0.3000000
v 0.0224178 0.0000000 -0.0255626
v 0.0224178 -0.0500000 -0.0255626
v 0.2630929 -0.0500000 -0.3000000
v 0.3000000 0.0000000 -0.3000000
v 0.0240416 0.0000000 -0.0240416
v 0.0240416 -0.0500000 -0.0240416
v 0.3000000 -0.0500000 -0.3000000
v 0.3000000 0.0000000 -0.2630929
v 0.0255626 0.0000000 -0.0224178
v 0.0255626 -0.0500000 -0.0224178
v 0.3000000 -0.0500000 -0.2630929
v 0.3000000 0.0000000 -0.2301981
v 0.0269740 0.0000000 -0.0206979
v 0.0269740 -0.0500000 -0.0206979
v 0.3000000 -0.0500000 -0.2301981
v 0.3000000 0.0000000 -0.2004536
v 0.0282700 0.0000000 -0.0188894
v 0.0282700 -0.0500000 -0.0188894
v 0.3000000 -0.0500000 -0.2004536
v 0.3000000 0.0000000 -0.1732051
v 0.0294449 0.0000000 -0.0170000
v 0.0294449 -0.0500000 -0.0170000
v 0.3000000 -0.0500000 -0.1732051
v 0.3000000 0.0000000 -0.1479436
v 0.0304937 0.0000000 -0.0150378
v 0.0304937 -0.0500000 -0.0150378
v 0.3000000 -0.0500000 -0.1479436
v 0.3000000 0.0000000 -0.1242641
v 0.0314119 0.0000000 -0.0130112
v 0.0314119 -0.0500000 -0.0130112
v 0.3000000 -0.0500000 -0.1242641
v 0.3000000 0.0000000 -0.1018363
v 0.0321956 0.0000000 -0.0109289
v 0.0321956 -0.0500000 -0.0109289
v 0.3000000 -0.0500000 -0.1018363
v 0.3000000 0.0000000 -0.0803848
v 0.0328415 0.0000000 -0.0087998
v 0.0328415 -0.0500000 -0.0087998
v 0.3000000 -0.0500000 -0.0803848
v 0.3000000 0.0000000 -0.0596737
v 0.0333467 0.0000000 -0.0066331
v 0.0333467 -0.0500000 -0.0066331
v 0.3000000 -0.0500000 -0.0596737
v 0.3000000 0.0000000 -0.0394957
v 0.0337091 0.0000000 -0.0044379
v 0.0337091 -0.0500000 -0.0044379
v 0.3000000 -0.0500000 -0.0394957
v 0.3000000 0.0000000 -0.0196630
v 0.0339272 0.0000000 -0.0022237
v 0.0339272 -0.0500000 -0.0022237
v 0.3000000 -0.0500000 -0.0196630
v 0.0000000 -0.0500000 0.0000000
s off
usemtl Turf
f 1 2 6 5
usemtl Cup
f 2 3 7 6
f 385 7 3
usemtl Turf
f 1 5 8 4
f 5 6 10 9
usemtl Cup
f 6 7 11 10
f 385 11 7
usemtl Turf
f 5 9 12 8
f 9 10 14 13
usemtl Cup
f 10 11 15 14
f 385 15 11
usemtl Turf
f 9 13 16 12
f 13 14 18 17
usemtl Cup
f 14 15 19 18
f 385 19 15
usemtl Turf
f 13 17 20 16
f 17 18 22 21
usemtl Cup
f 18 19 23 22
f 385 23 19
usemtl Turf
f 17 21 24 20
f 21 22 26 25
usemtl Cup
f 22 23 27 26
f 385 27 23
usemtl Turf
f 21 25 28 24
f 25 26 30 29
usemtl Cup
f 26 27 31 30
f 385 31 27
usemtl Turf
f 25 29 32 28
f 29 30 34 33
usemtl Cup
f 30 31 35 34
f 385 35 31
usemtl Turf
f 29 33 36 32
f 33 34 38 37
usemtl Cup
f 34 35 39 38
f 385 39 35
usemtl Turf
f 33 37 40 36
f 37 38 42 41
usemtl Cup
f 38 39 43 42
f 385 43 39
usemtl Turf
f 37 41 44 40
f 41 42 46 45
usemtl Cup
f 42 43 47 46
f 385 47 43
usemtl Turf
f 41 45 48 44
f 45 46 50 49
usemtl Cup
f 46 47 51 50
f 385 51 47
usemtl Turf
f 45 49 52 48
f 49 50 54 53
usemtl Cup
f 50 51 55 54
f 385 55 51
usemtl Turf
f 49 53 56 52
f 53 54 58 57
usemtl Cup
f 54 55 59 58
f 385 59 55
usemtl Turf
f 53 57 60 56
f 57 58 62 61
usemtl Cup
f 58 59 63 62
f 385 63 59
usemtl Turf
f 57 61 64 60
f 61 62 66 65
usemtl Cup
f 62 63 67 66
f 385 67 63
usemtl Turf
f 61 65 68 64
f 65 66 70 69
usemtl Cup
f 66 67 71 70
f 385 71 67
usemtl Turf
f 65 69 72 68
f 69 70 74 73
usemtl Cup
f 70 71 75 74
f 385 75 71
usemtl Turf
f 69 73 76 72
f 73 74 78 77
usemtl Cup
f 74 75 79 78
f 385 79 75
usemtl Turf
f 73 77 80 76
f 77 78 82 81
usemtl Cup
f 78 79 83 82
f 385 83 79
usemtl Turf
f 77 81 84 80
f 81 82 86 85
usemtl Cup
f 82 83 87 86
f 385 87 83
usemtl Turf
f 81 85 88 84
f 85 86 90 89
usemtl Cup
f 86 87 91 90
f 385 91 87
usemtl Turf
f 85 89 92 88
f 89 90 94 93
usemtl Cup
f 90 91 95 94
f 385 95 91
usemtl Turf
f 89 93 96 92
f 93 94 98 97
usemtl Cup
f 94 95 99 98
f 385 99 95
usemtl Turf
f 93 97 100 96
f 97 98 102 101
usemtl Cup
f 98 99 103 102
f 385 103 99
usemtl Turf
f 97 101 104 100
f 101 102 106 105
usemtl Cup
f 102 103 107 106
f 385 107 103
usemtl Turf
f 101 105 108 104
f 105 106 110 109
usemtl Cup
f 106 107 111 110
f 385 111 107
usemtl Turf
f 105 109 112 108
f 109 110 114 113
usemtl Cup
f 110 111 115 114
f 385 115 111
usemtl Turf
f 109 113 116 112
f 113 114 118 117
usemtl Cup
f 114 115 119 118
f 385 119 115
usemtl Turf
f 113 117 120 116
f 117 118 122 121
usemtl Cup
f 118 119 123 122
f 385 123 119
usemtl Turf
f 117 121 124 120
f 121 122 126 125
usemtl Cup
f 122 123 127 126
f 385 127 123
usemtl Turf
f 121 125 128 124
f 125 126 130 129
usemtl Cup
f 126 127 131 130
f 385 131 127
usemtl Turf
f 125 129 132 128
f 129 130 134 133
usemtl Cup
f 130 131 135 134
f 385 135 131
usemtl Turf
f 129 133 136 132
f 133 134 138 137
usemtl Cup
f 134 135 139 138
f 385 139 135
usemtl Turf
f 133 137 140 136
f 137 138 142 141
usemtl Cup
f 138 139 143 142
f 385 143 139
usemtl Turf
f 137 141 144 140
f 141 142 146 145
usemtl Cup
f 142 143 147 146
f 385 147 143
usemtl Turf
f 141 145 148 144
f 145 146 150 149
usemtl Cup
f 146 147 151 150
f 385 151 147
usemtl Turf
f 145 149 152 148
f 149 150 154 153
usemtl Cup
f 150 151 155 154
f 385 155 151
usemtl Turf
f 149 153 156 152
f 153 154 158 157
usemtl Cup
f 154 155 159 158
f 385 159 155
usemtl Turf
f 153 157 160 156
f 157 158 162 161
usemtl Cup
f 158 159 163 162
f 385 163 159
usemtl Turf
f 157 161 164 160
f 161 162 166 165
usemtl Cup
f 162 163 167 166
f 385 167 163
usemtl Turf
f 161 165 168 164
f 165 166 170 169
usemtl Cup
f 166 167 171 170
f 385 171 167
usemtl Turf
f 165 169 172 168
f 169 170 174 173
usemtl Cup
f 170 171 175 174
f 385 175 171
usemtl Turf
f 169 173 176 172
f 173 174 178 177
usemtl Cup
f 174 175 179 178
f 385 179 175
usemtl Turf
f 173 177 180 176
f 177 178 182 181
usemtl Cup
f 178 179 183 182
f 385 183 179
usemtl Turf
f 177 181 184 180
f 181 182 186 185
usemtl Cup
f 182 183 187 186
f 385 187 183
usemtl Turf
f 181 185 188 184
f 185 186 190 189
usemtl Cup
f 186 187 191 190
f 385 191 187
usemtl Turf
f 185 189 192 188
f 189 190 194 193
usemtl Cup
f 190 191 195 194
f 385 195 191
usemtl Turf
f 189 193 196 192
f 193 194 198 197
usemtl Cup
f 194 195 199 198
f 385 199 195
usemtl Turf
f 193 197 200 196
f 197 198 202 201
usemtl Cup
f 198 199 203 202
f 385 203 199
usemtl Turf
f 197 201 204 200
f 201 202 206 205
usemtl Cup
f 202 203 207 206
f 385 207 203
usemtl Turf
f 201 205 208 204
f 205 206 210 209
usemtl Cup
f 206 207 211 210
f 385 211 207
usemtl Turf
f 205 209 212 208
f 209 210 214 213
usemtl Cup
f 210 211 215 214
f 385 215 211
usemtl Turf
f 209 213 216 212
f 213 214 218 217
usemtl Cup
f 214 215 219 218
f 385 219 215
usemtl Turf
f 213 217 220 216
f 217 218 222 221
usemtl Cup
f 218 219 223 222
f 385 223 219
usemtl Turf
f 217 221 224 220
f 221 222 226 225
usemtl Cup
f 222 223 227 226
f 385 227 223
usemtl Turf
f 221 225 228 224
f 225 226 230 229
usemtl Cup
f 226 227 231 230
f 385 231 227
usemtl Turf
f 225 229 232 228
f 229 230 234 233
usemtl Cup
f 230 231 235 234
f 385 235 231
usemtl Turf
f 229 233 236 232
f 233 234 238 237
usemtl Cup
f 234 235 239 238
f 385 239 235
usemtl Turf
f 233 237 240 236
f 237 238 242 241
usemtl Cup
f 238 239 243 242
f 385 243 239
usemtl Turf
f 237 241 244 240
f 241 242 246 245
usemtl Cup
f 242 243 247 246
f 385 247 243
usemtl Turf
f 241 245 248 244
f 245 246 250 249
usemtl Cup
f 246 247 251 250
f 385 251 247
usemtl Turf
f 245 249 252 248
f 249 250 254 253
usemtl Cup
f 250 251 255 254
f 385 255 251
usemtl Turf
f 249 253 256 252
f 253 254 258 257
usemtl Cup
f 254 255 259 258
f 385 259 255
usemtl Turf
f 253 257 260 256
f 257 258 262 261
usemtl Cup
f 258 259 263 262
f 385 263 259
usemtl Turf
f 257 261 264 260
f 261 262 266 265
usemtl Cup
f 262 263 267 266
f 385 267 263
usemtl Turf
f 261 265 268 264
f 265 266 270 269
usemtl Cup
f 266 267 271 270
f 385 271 267
usemtl Turf
f 265 269 272 268
f 269 270 274 273
usemtl Cup
f 270 271 275 274
f 385 275 271
usemtl Turf
f 269 273 276 272
f 273 274 278 277
usemtl Cup
f 274 275 279 278
f 385 279 275
usemtl Turf
f 273 277 280 276
f 277 278 282 281
usemtl Cup
f 278 279 283 282
f 385 283 279
usemtl Turf
f 277 281 284 280
f 281 282 286 285
usemtl Cup
f 282 283 287 286
f 385 287 283
usemtl Turf
f 281 285 288 284
f 285 286 290 289
usemtl Cup
f 286 287 291 290
f 385 291 287
usemtl Turf
f 285 289 292 288
f 289 290 294 293
usemtl Cup
f 290 291 295 294
f 385 295 291
usemtl Turf
f 289 293 296 292
f 293 294 298 297
usemtl Cup
f 294 295 299 298
f 385 299 295
usemtl Turf
f 293 297 300 296
f 297 298 302 301
usemtl Cup
f 298 299 303 302
f 385 303 299
usemtl Turf
f 297 301 304 300
f 301 302 306 305
usemtl Cup
f 302 303 307 306
f 385 307 303
usemtl Turf
f 301 305 308 304
f 305 306 310 309
usemtl Cup
f 306 307 311 310
f 385 311 307
usemtl Turf
f 305 309 312 308
f 309 310 314 313
usemtl Cup
f 310 311 315 314
f 385 315 311
usemtl Turf
f 309 313 316 312
f 313 314 318 317
usemtl Cup
f 314 315 319 318
f 385 319 315
usemtl Turf
f 313 317 320 316
f 317 318 322 321
usemtl Cup
f 318 319 323 322
f 385 323 319
usemtl Turf
f 317 321 324 320
f 321 322 326 325
usemtl Cup
f 322 323 327 326
f 385 327 323
usemtl Turf
f 321 325 328 324
f 325 326 330 329
usemtl Cup
f 326 327 331 330
f 385 331 327
usemtl Turf
f 325 329 332 328
f 329 330 334 333
usemtl Cup
f 330 331 335 334
f 385 335 331
usemtl Turf
f 329 333 336 332
f 333 334 338 337
usemtl Cup
f 334 335 339 338
f 385 339 335
usemtl Turf
f 333 337 340 336
f 337 338 342 341
usemtl Cup
f 338 339 343 342
f 385 343 339
usemtl Turf
f 337 341 344 340
f 341 342 346 345
usemtl Cup
f 342 343 347 346
f 385 347 343
usemtl Turf
f 341 345 348 344
f 345 346 350 349
usemtl Cup
f 346 347 351 350
f 385 351 347
usemtl Turf
f 345 349 352 348
f 349 350 354 353
usemtl Cup
f 350 351 355 354
f 385 355 351
usemtl Turf
f 349 353 356 352
f 353 354 358 357
usemtl Cup
f 354 355 359 358
f 385 359 355
usemtl Turf
f 353 357 360 356
f 357 358 362 361
usemtl Cup
f 358 359 363 362
f 385 363 359
usemtl Turf
f 357 361 364 360
f 361 362 366 365
usemtl Cup
f 362 363 367 366
f 385 367 363
usemtl Turf
f 361 365 368 364
f 365 366 370 369
usemtl Cup
f 366 367 371 370
f 385 371 367
usemtl Turf
f 365 369 372 368
f 369 370 374 373
usemtl Cup
f 370 371 375 374
f 385 375 371
usemtl Turf
f 369 373 376 372
f 373 374 378 377
usemtl Cup
f 374 375 379 378
f 385 379 375
usemtl Turf
f 373 377 380 376
f 377 378 382 381
usemtl Cup
f 378 379 383 382
f 385 383 379
usemtl Turf
f 377 381 384 380
f 381 382 2 1
usemtl Cup
f 382 383 3 2
f 385 3 383
usemtl Turf
f 381 1 4 384
