# Meters; Y up. Cup diameter 0.11m; depth 0.05m.
mtllib Cup11Materials.mtl
o GolfGreen_ContinuousCollider_11cm
s off
v 0.300000000 0.000000000 3.287476000
v 0.055000000 0.000000000 3.287476000
v 0.055000000 -0.050000000 3.287476000
v 0.300000000 -0.060000000 3.287476000
v 0.300000000 0.000000000 3.297296983
v 0.054970552 0.000000000 3.289275550
v 0.054970552 -0.050000000 3.289275550
v 0.300000000 -0.060000000 3.297296983
v 0.300000000 0.000000000 3.307139039
v 0.054882241 0.000000000 3.291073172
v 0.054882241 -0.050000000 3.291073172
v 0.300000000 -0.060000000 3.307139039
v 0.300000000 0.000000000 3.317023421
v 0.054735160 0.000000000 3.292866943
v 0.054735160 -0.050000000 3.292866943
v 0.300000000 -0.060000000 3.317023421
v 0.300000000 0.000000000 3.326971749
v 0.054529467 0.000000000 3.294654941
v 0.054529467 -0.050000000 3.294654941
v 0.300000000 -0.060000000 3.326971749
v 0.300000000 0.000000000 3.337006200
v 0.054265383 0.000000000 3.296435251
v 0.054265383 -0.050000000 3.296435251
v 0.300000000 -0.060000000 3.337006200
v 0.300000000 0.000000000 3.347149710
v 0.053943190 0.000000000 3.298205968
v 0.053943190 -0.050000000 3.298205968
v 0.300000000 -0.060000000 3.347149710
v 0.300000000 0.000000000 3.357426189
v 0.053563234 0.000000000 3.299965194
v 0.053563234 -0.050000000 3.299965194
v 0.300000000 -0.060000000 3.357426189
v 0.300000000 0.000000000 3.367860758
v 0.053125920 0.000000000 3.301711047
v 0.053125920 -0.050000000 3.301711047
v 0.300000000 -0.060000000 3.367860758
v 0.300000000 0.000000000 3.378480005
v 0.052631718 0.000000000 3.303441657
v 0.052631718 -0.050000000 3.303441657
v 0.300000000 -0.060000000 3.378480005
v 0.300000000 0.000000000 3.389312278
v 0.052081157 0.000000000 3.305155171
v 0.052081157 -0.050000000 3.305155171
v 0.300000000 -0.060000000 3.389312278
v 0.300000000 0.000000000 3.400388005
v 0.051474826 0.000000000 3.306849753
v 0.051474826 -0.050000000 3.306849753
v 0.300000000 -0.060000000 3.400388005
v 0.300000000 0.000000000 3.411740069
v 0.050813374 0.000000000 3.308523589
v 0.050813374 -0.050000000 3.308523589
v 0.300000000 -0.060000000 3.411740069
v 0.300000000 0.000000000 3.423404232
v 0.050097510 0.000000000 3.310174887
v 0.050097510 -0.050000000 3.310174887
v 0.300000000 -0.060000000 3.423404232
v 0.300000000 0.000000000 3.435419628
v 0.049328001 0.000000000 3.311801878
v 0.049328001 -0.050000000 3.311801878
v 0.300000000 -0.060000000 3.435419628
v 0.300000000 0.000000000 3.447829341
v 0.048505670 0.000000000 3.313402821
v 0.048505670 -0.050000000 3.313402821
v 0.300000000 -0.060000000 3.447829341
v 0.300000000 0.000000000 3.460681081
v 0.047631397 0.000000000 3.314976000
v 0.047631397 -0.050000000 3.314976000
v 0.300000000 -0.060000000 3.460681081
v 0.300000000 0.000000000 3.474027988
v 0.046706120 0.000000000 3.316519732
v 0.046706120 -0.050000000 3.316519732
v 0.300000000 -0.060000000 3.474027988
v 0.300000000 0.000000000 3.487929591
v 0.045730829 0.000000000 3.318032363
v 0.045730829 -0.050000000 3.318032363
v 0.300000000 -0.060000000 3.487929591
v 0.300000000 0.000000000 3.502452960
v 0.044706568 0.000000000 3.319512273
v 0.044706568 -0.050000000 3.319512273
v 0.300000000 -0.060000000 3.502452960
v 0.300000000 0.000000000 3.517674096
v 0.043634434 0.000000000 3.320957879
v 0.043634434 -0.050000000 3.320957879
v 0.300000000 -0.060000000 3.517674096
v 0.300000000 0.000000000 3.533679637
v 0.042515575 0.000000000 3.322367631
v 0.042515575 -0.050000000 3.322367631
v 0.300000000 -0.060000000 3.533679637
v 0.300000000 0.000000000 3.550568939
v 0.041351189 0.000000000 3.323740020
v 0.041351189 -0.050000000 3.323740020
v 0.300000000 -0.060000000 3.550568939
v 0.300000000 0.000000000 3.568456662
v 0.040142524 0.000000000 3.325073577
v 0.040142524 -0.050000000 3.325073577
v 0.300000000 -0.060000000 3.568456662
v 0.300000000 0.000000000 3.587476000
v 0.038890873 0.000000000 3.326366873
v 0.038890873 -0.050000000 3.326366873
v 0.300000000 -0.060000000 3.587476000
v 0.280980662 0.000000000 3.587476000
v 0.037597577 0.000000000 3.327618524
v 0.037597577 -0.050000000 3.327618524
v 0.280980662 -0.060000000 3.587476000
v 0.263092939 0.000000000 3.587476000
v 0.036264020 0.000000000 3.328827189
v 0.036264020 -0.050000000 3.328827189
v 0.263092939 -0.060000000 3.587476000
v 0.246203637 0.000000000 3.587476000
v 0.034891631 0.000000000 3.329991575
v 0.034891631 -0.050000000 3.329991575
v 0.246203637 -0.060000000 3.587476000
v 0.230198096 0.000000000 3.587476000
v 0.033481879 0.000000000 3.331110434
v 0.033481879 -0.050000000 3.331110434
v 0.230198096 -0.060000000 3.587476000
v 0.214976960 0.000000000 3.587476000
v 0.032036273 0.000000000 3.332182568
v 0.032036273 -0.050000000 3.332182568
v 0.214976960 -0.060000000 3.587476000
v 0.200453591 0.000000000 3.587476000
v 0.030556363 0.000000000 3.333206829
v 0.030556363 -0.050000000 3.333206829
v 0.200453591 -0.060000000 3.587476000
v 0.186551988 0.000000000 3.587476000
v 0.029043732 0.000000000 3.334182120
v 0.029043732 -0.050000000 3.334182120
v 0.186551988 -0.060000000 3.587476000
v 0.173205081 0.000000000 3.587476000
v 0.027500000 0.000000000 3.335107397
v 0.027500000 -0.050000000 3.335107397
v 0.173205081 -0.060000000 3.587476000
v 0.160353341 0.000000000 3.587476000
v 0.025926821 0.000000000 3.335981670
v 0.025926821 -0.050000000 3.335981670
v 0.160353341 -0.060000000 3.587476000
v 0.147943628 0.000000000 3.587476000
v 0.024325878 0.000000000 3.336804001
v 0.024325878 -0.050000000 3.336804001
v 0.147943628 -0.060000000 3.587476000
v 0.135928232 0.000000000 3.587476000
v 0.022698887 0.000000000 3.337573510
v 0.022698887 -0.050000000 3.337573510
v 0.135928232 -0.060000000 3.587476000
v 0.124264069 0.000000000 3.587476000
v 0.021047589 0.000000000 3.338289374
v 0.021047589 -0.050000000 3.338289374
v 0.124264069 -0.060000000 3.587476000
v 0.112912005 0.000000000 3.587476000
v 0.019373753 0.000000000 3.338950826
v 0.019373753 -0.050000000 3.338950826
v 0.112912005 -0.060000000 3.587476000
v 0.101836278 0.000000000 3.587476000
v 0.017679171 0.000000000 3.339557157
v 0.017679171 -0.050000000 3.339557157
v 0.101836278 -0.060000000 3.587476000
v 0.091004005 0.000000000 3.587476000
v 0.015965657 0.000000000 3.340107718
v 0.015965657 -0.050000000 3.340107718
v 0.091004005 -0.060000000 3.587476000
v 0.080384758 0.000000000 3.587476000
v 0.014235047 0.000000000 3.340601920
v 0.014235047 -0.050000000 3.340601920
v 0.080384758 -0.060000000 3.587476000
v 0.069950189 0.000000000 3.587476000
v 0.012489194 0.000000000 3.341039234
v 0.012489194 -0.050000000 3.341039234
v 0.069950189 -0.060000000 3.587476000
v 0.059673710 0.000000000 3.587476000
v 0.010729968 0.000000000 3.341419190
v 0.010729968 -0.050000000 3.341419190
v 0.059673710 -0.060000000 3.587476000
v 0.049530200 0.000000000 3.587476000
v 0.008959251 0.000000000 3.341741383
v 0.008959251 -0.050000000 3.341741383
v 0.049530200 -0.060000000 3.587476000
v 0.039495749 0.000000000 3.587476000
v 0.007178941 0.000000000 3.342005467
v 0.007178941 -0.050000000 3.342005467
v 0.039495749 -0.060000000 3.587476000
v 0.029547421 0.000000000 3.587476000
v 0.005390943 0.000000000 3.342211160
v 0.005390943 -0.050000000 3.342211160
v 0.029547421 -0.060000000 3.587476000
v 0.019663039 0.000000000 3.587476000
v 0.003597172 0.000000000 3.342358241
v 0.003597172 -0.050000000 3.342358241
v 0.019663039 -0.060000000 3.587476000
v 0.009820983 0.000000000 3.587476000
v 0.001799550 0.000000000 3.342446552
v 0.001799550 -0.050000000 3.342446552
v 0.009820983 -0.060000000 3.587476000
v 0.000000000 0.000000000 3.587476000
v 0.000000000 0.000000000 3.342476000
v 0.000000000 -0.050000000 3.342476000
v 0.000000000 -0.060000000 3.587476000
v -0.009820983 0.000000000 3.587476000
v -0.001799550 0.000000000 3.342446552
v -0.001799550 -0.050000000 3.342446552
v -0.009820983 -0.060000000 3.587476000
v -0.019663039 0.000000000 3.587476000
v -0.003597172 0.000000000 3.342358241
v -0.003597172 -0.050000000 3.342358241
v -0.019663039 -0.060000000 3.587476000
v -0.029547421 0.000000000 3.587476000
v -0.005390943 0.000000000 3.342211160
v -0.005390943 -0.050000000 3.342211160
v -0.029547421 -0.060000000 3.587476000
v -0.039495749 0.000000000 3.587476000
v -0.007178941 0.000000000 3.342005467
v -0.007178941 -0.050000000 3.342005467
v -0.039495749 -0.060000000 3.587476000
v -0.049530200 0.000000000 3.587476000
v -0.008959251 0.000000000 3.341741383
v -0.008959251 -0.050000000 3.341741383
v -0.049530200 -0.060000000 3.587476000
v -0.059673710 0.000000000 3.587476000
v -0.010729968 0.000000000 3.341419190
v -0.010729968 -0.050000000 3.341419190
v -0.059673710 -0.060000000 3.587476000
v -0.069950189 0.000000000 3.587476000
v -0.012489194 0.000000000 3.341039234
v -0.012489194 -0.050000000 3.341039234
v -0.069950189 -0.060000000 3.587476000
v -0.080384758 0.000000000 3.587476000
v -0.014235047 0.000000000 3.340601920
v -0.014235047 -0.050000000 3.340601920
v -0.080384758 -0.060000000 3.587476000
v -0.091004005 0.000000000 3.587476000
v -0.015965657 0.000000000 3.340107718
v -0.015965657 -0.050000000 3.340107718
v -0.091004005 -0.060000000 3.587476000
v -0.101836278 0.000000000 3.587476000
v -0.017679171 0.000000000 3.339557157
v -0.017679171 -0.050000000 3.339557157
v -0.101836278 -0.060000000 3.587476000
v -0.112912005 0.000000000 3.587476000
v -0.019373753 0.000000000 3.338950826
v -0.019373753 -0.050000000 3.338950826
v -0.112912005 -0.060000000 3.587476000
v -0.124264069 0.000000000 3.587476000
v -0.021047589 0.000000000 3.338289374
v -0.021047589 -0.050000000 3.338289374
v -0.124264069 -0.060000000 3.587476000
v -0.135928232 0.000000000 3.587476000
v -0.022698887 0.000000000 3.337573510
v -0.022698887 -0.050000000 3.337573510
v -0.135928232 -0.060000000 3.587476000
v -0.147943628 0.000000000 3.587476000
v -0.024325878 0.000000000 3.336804001
v -0.024325878 -0.050000000 3.336804001
v -0.147943628 -0.060000000 3.587476000
v -0.160353341 0.000000000 3.587476000
v -0.025926821 0.000000000 3.335981670
v -0.025926821 -0.050000000 3.335981670
v -0.160353341 -0.060000000 3.587476000
v -0.173205081 0.000000000 3.587476000
v -0.027500000 0.000000000 3.335107397
v -0.027500000 -0.050000000 3.335107397
v -0.173205081 -0.060000000 3.587476000
v -0.186551988 0.000000000 3.587476000
v -0.029043732 0.000000000 3.334182120
v -0.029043732 -0.050000000 3.334182120
v -0.186551988 -0.060000000 3.587476000
v -0.200453591 0.000000000 3.587476000
v -0.030556363 0.000000000 3.333206829
v -0.030556363 -0.050000000 3.333206829
v -0.200453591 -0.060000000 3.587476000
v -0.214976960 0.000000000 3.587476000
v -0.032036273 0.000000000 3.332182568
v -0.032036273 -0.050000000 3.332182568
v -0.214976960 -0.060000000 3.587476000
v -0.230198096 0.000000000 3.587476000
v -0.033481879 0.000000000 3.331110434
v -0.033481879 -0.050000000 3.331110434
v -0.230198096 -0.060000000 3.587476000
v -0.246203637 0.000000000 3.587476000
v -0.034891631 0.000000000 3.329991575
v -0.034891631 -0.050000000 3.329991575
v -0.246203637 -0.060000000 3.587476000
v -0.263092939 0.000000000 3.587476000
v -0.036264020 0.000000000 3.328827189
v -0.036264020 -0.050000000 3.328827189
v -0.263092939 -0.060000000 3.587476000
v -0.280980662 0.000000000 3.587476000
v -0.037597577 0.000000000 3.327618524
v -0.037597577 -0.050000000 3.327618524
v -0.280980662 -0.060000000 3.587476000
v -0.300000000 0.000000000 3.587476000
v -0.038890873 0.000000000 3.326366873
v -0.038890873 -0.050000000 3.326366873
v -0.300000000 -0.060000000 3.587476000
v -0.300000000 0.000000000 3.568456662
v -0.040142524 0.000000000 3.325073577
v -0.040142524 -0.050000000 3.325073577
v -0.300000000 -0.060000000 3.568456662
v -0.300000000 0.000000000 3.550568939
v -0.041351189 0.000000000 3.323740020
v -0.041351189 -0.050000000 3.323740020
v -0.300000000 -0.060000000 3.550568939
v -0.300000000 0.000000000 3.533679637
v -0.042515575 0.000000000 3.322367631
v -0.042515575 -0.050000000 3.322367631
v -0.300000000 -0.060000000 3.533679637
v -0.300000000 0.000000000 3.517674096
v -0.043634434 0.000000000 3.320957879
v -0.043634434 -0.050000000 3.320957879
v -0.300000000 -0.060000000 3.517674096
v -0.300000000 0.000000000 3.502452960
v -0.044706568 0.000000000 3.319512273
v -0.044706568 -0.050000000 3.319512273
v -0.300000000 -0.060000000 3.502452960
v -0.300000000 0.000000000 3.487929591
v -0.045730829 0.000000000 3.318032363
v -0.045730829 -0.050000000 3.318032363
v -0.300000000 -0.060000000 3.487929591
v -0.300000000 0.000000000 3.474027988
v -0.046706120 0.000000000 3.316519732
v -0.046706120 -0.050000000 3.316519732
v -0.300000000 -0.060000000 3.474027988
v -0.300000000 0.000000000 3.460681081
v -0.047631397 0.000000000 3.314976000
v -0.047631397 -0.050000000 3.314976000
v -0.300000000 -0.060000000 3.460681081
v -0.300000000 0.000000000 3.447829341
v -0.048505670 0.000000000 3.313402821
v -0.048505670 -0.050000000 3.313402821
v -0.300000000 -0.060000000 3.447829341
v -0.300000000 0.000000000 3.435419628
v -0.049328001 0.000000000 3.311801878
v -0.049328001 -0.050000000 3.311801878
v -0.300000000 -0.060000000 3.435419628
v -0.300000000 0.000000000 3.423404232
v -0.050097510 0.000000000 3.310174887
v -0.050097510 -0.050000000 3.310174887
v -0.300000000 -0.060000000 3.423404232
v -0.300000000 0.000000000 3.411740069
v -0.050813374 0.000000000 3.308523589
v -0.050813374 -0.050000000 3.308523589
v -0.300000000 -0.060000000 3.411740069
v -0.300000000 0.000000000 3.400388005
v -0.051474826 0.000000000 3.306849753
v -0.051474826 -0.050000000 3.306849753
v -0.300000000 -0.060000000 3.400388005
v -0.300000000 0.000000000 3.389312278
v -0.052081157 0.000000000 3.305155171
v -0.052081157 -0.050000000 3.305155171
v -0.300000000 -0.060000000 3.389312278
v -0.300000000 0.000000000 3.378480005
v -0.052631718 0.000000000 3.303441657
v -0.052631718 -0.050000000 3.303441657
v -0.300000000 -0.060000000 3.378480005
v -0.300000000 0.000000000 3.367860758
v -0.053125920 0.000000000 3.301711047
v -0.053125920 -0.050000000 3.301711047
v -0.300000000 -0.060000000 3.367860758
v -0.300000000 0.000000000 3.357426189
v -0.053563234 0.000000000 3.299965194
v -0.053563234 -0.050000000 3.299965194
v -0.300000000 -0.060000000 3.357426189
v -0.300000000 0.000000000 3.347149710
v -0.053943190 0.000000000 3.298205968
v -0.053943190 -0.050000000 3.298205968
v -0.300000000 -0.060000000 3.347149710
v -0.300000000 0.000000000 3.337006200
v -0.054265383 0.000000000 3.296435251
v -0.054265383 -0.050000000 3.296435251
v -0.300000000 -0.060000000 3.337006200
v -0.300000000 0.000000000 3.326971749
v -0.054529467 0.000000000 3.294654941
v -0.054529467 -0.050000000 3.294654941
v -0.300000000 -0.060000000 3.326971749
v -0.300000000 0.000000000 3.317023421
v -0.054735160 0.000000000 3.292866943
v -0.054735160 -0.050000000 3.292866943
v -0.300000000 -0.060000000 3.317023421
v -0.300000000 0.000000000 3.307139039
v -0.054882241 0.000000000 3.291073172
v -0.054882241 -0.050000000 3.291073172
v -0.300000000 -0.060000000 3.307139039
v -0.300000000 0.000000000 3.297296983
v -0.054970552 0.000000000 3.289275550
v -0.054970552 -0.050000000 3.289275550
v -0.300000000 -0.060000000 3.297296983
v -0.300000000 0.000000000 3.287476000
v -0.055000000 0.000000000 3.287476000
v -0.055000000 -0.050000000 3.287476000
v -0.300000000 -0.060000000 3.287476000
v -0.300000000 0.000000000 3.277655017
v -0.054970552 0.000000000 3.285676450
v -0.054970552 -0.050000000 3.285676450
v -0.300000000 -0.060000000 3.277655017
v -0.300000000 0.000000000 3.267812961
v -0.054882241 0.000000000 3.283878828
v -0.054882241 -0.050000000 3.283878828
v -0.300000000 -0.060000000 3.267812961
v -0.300000000 0.000000000 3.257928579
v -0.054735160 0.000000000 3.282085057
v -0.054735160 -0.050000000 3.282085057
v -0.300000000 -0.060000000 3.257928579
v -0.300000000 0.000000000 3.247980251
v -0.054529467 0.000000000 3.280297059
v -0.054529467 -0.050000000 3.280297059
v -0.300000000 -0.060000000 3.247980251
v -0.300000000 0.000000000 3.237945800
v -0.054265383 0.000000000 3.278516749
v -0.054265383 -0.050000000 3.278516749
v -0.300000000 -0.060000000 3.237945800
v -0.300000000 0.000000000 3.227802290
v -0.053943190 0.000000000 3.276746032
v -0.053943190 -0.050000000 3.276746032
v -0.300000000 -0.060000000 3.227802290
v -0.300000000 0.000000000 3.217525811
v -0.053563234 0.000000000 3.274986806
v -0.053563234 -0.050000000 3.274986806
v -0.300000000 -0.060000000 3.217525811
v -0.300000000 0.000000000 3.207091242
v -0.053125920 0.000000000 3.273240953
v -0.053125920 -0.050000000 3.273240953
v -0.300000000 -0.060000000 3.207091242
v -0.300000000 0.000000000 3.196471995
v -0.052631718 0.000000000 3.271510343
v -0.052631718 -0.050000000 3.271510343
v -0.300000000 -0.060000000 3.196471995
v -0.300000000 0.000000000 3.185639722
v -0.052081157 0.000000000 3.269796829
v -0.052081157 -0.050000000 3.269796829
v -0.300000000 -0.060000000 3.185639722
v -0.300000000 0.000000000 3.174563995
v -0.051474826 0.000000000 3.268102247
v -0.051474826 -0.050000000 3.268102247
v -0.300000000 -0.060000000 3.174563995
v -0.300000000 0.000000000 3.163211931
v -0.050813374 0.000000000 3.266428411
v -0.050813374 -0.050000000 3.266428411
v -0.300000000 -0.060000000 3.163211931
v -0.300000000 0.000000000 3.151547768
v -0.050097510 0.000000000 3.264777113
v -0.050097510 -0.050000000 3.264777113
v -0.300000000 -0.060000000 3.151547768
v -0.300000000 0.000000000 3.139532372
v -0.049328001 0.000000000 3.263150122
v -0.049328001 -0.050000000 3.263150122
v -0.300000000 -0.060000000 3.139532372
v -0.300000000 0.000000000 3.127122659
v -0.048505670 0.000000000 3.261549179
v -0.048505670 -0.050000000 3.261549179
v -0.300000000 -0.060000000 3.127122659
v -0.300000000 0.000000000 3.114270919
v -0.047631397 0.000000000 3.259976000
v -0.047631397 -0.050000000 3.259976000
v -0.300000000 -0.060000000 3.114270919
v -0.300000000 0.000000000 3.100924012
v -0.046706120 0.000000000 3.258432268
v -0.046706120 -0.050000000 3.258432268
v -0.300000000 -0.060000000 3.100924012
v -0.300000000 0.000000000 3.087022409
v -0.045730829 0.000000000 3.256919637
v -0.045730829 -0.050000000 3.256919637
v -0.300000000 -0.060000000 3.087022409
v -0.300000000 0.000000000 3.072499040
v -0.044706568 0.000000000 3.255439727
v -0.044706568 -0.050000000 3.255439727
v -0.300000000 -0.060000000 3.072499040
v -0.300000000 0.000000000 3.057277904
v -0.043634434 0.000000000 3.253994121
v -0.043634434 -0.050000000 3.253994121
v -0.300000000 -0.060000000 3.057277904
v -0.300000000 0.000000000 3.041272363
v -0.042515575 0.000000000 3.252584369
v -0.042515575 -0.050000000 3.252584369
v -0.300000000 -0.060000000 3.041272363
v -0.300000000 0.000000000 3.024383061
v -0.041351189 0.000000000 3.251211980
v -0.041351189 -0.050000000 3.251211980
v -0.300000000 -0.060000000 3.024383061
v -0.300000000 0.000000000 3.006495338
v -0.040142524 0.000000000 3.249878423
v -0.040142524 -0.050000000 3.249878423
v -0.300000000 -0.060000000 3.006495338
v -0.300000000 0.000000000 2.987476000
v -0.038890873 0.000000000 3.248585127
v -0.038890873 -0.050000000 3.248585127
v -0.300000000 -0.060000000 2.987476000
v -0.300000000 0.000000000 2.967169260
v -0.037597577 0.000000000 3.247333476
v -0.037597577 -0.050000000 3.247333476
v -0.300000000 -0.060000000 2.967169260
v -0.300000000 0.000000000 2.945391563
v -0.036264020 0.000000000 3.246124811
v -0.036264020 -0.050000000 3.246124811
v -0.300000000 -0.060000000 2.945391563
v -0.300000000 0.000000000 2.921924942
v -0.034891631 0.000000000 3.244960425
v -0.034891631 -0.050000000 3.244960425
v -0.300000000 -0.060000000 2.921924942
v -0.300000000 0.000000000 2.896508388
v -0.033481879 0.000000000 3.243841566
v -0.033481879 -0.050000000 3.243841566
v -0.300000000 -0.060000000 2.896508388
v -0.300000000 0.000000000 2.868826485
v -0.032036273 0.000000000 3.242769432
v -0.032036273 -0.050000000 3.242769432
v -0.300000000 -0.060000000 2.868826485
v -0.300000000 0.000000000 2.838494271
v -0.030556363 0.000000000 3.241745171
v -0.030556363 -0.050000000 3.241745171
v -0.300000000 -0.060000000 2.838494271
v -0.300000000 0.000000000 2.805036756
v -0.029043732 0.000000000 3.240769880
v -0.029043732 -0.050000000 3.240769880
v -0.300000000 -0.060000000 2.805036756
v -0.300000000 0.000000000 2.767860758
v -0.027500000 0.000000000 3.239844603
v -0.027500000 -0.050000000 3.239844603
v -0.300000000 -0.060000000 2.767860758
v -0.300000000 0.000000000 2.726215476
v -0.025926821 0.000000000 3.238970330
v -0.025926821 -0.050000000 3.238970330
v -0.300000000 -0.060000000 2.726215476
v -0.300000000 0.000000000 2.679136179
v -0.024325878 0.000000000 3.238147999
v -0.024325878 -0.050000000 3.238147999
v -0.300000000 -0.060000000 2.679136179
v -0.300000000 0.000000000 2.625361891
v -0.022698887 0.000000000 3.237378490
v -0.022698887 -0.050000000 3.237378490
v -0.300000000 -0.060000000 2.625361891
v -0.300000000 0.000000000 2.563211931
v -0.021047589 0.000000000 3.236662626
v -0.021047589 -0.050000000 3.236662626
v -0.300000000 -0.060000000 2.563211931
v -0.300000000 0.000000000 2.490395120
v -0.019373753 0.000000000 3.236001174
v -0.019373753 -0.050000000 3.236001174
v -0.300000000 -0.060000000 2.490395120
v -0.300000000 0.000000000 2.403704499
v -0.017679171 0.000000000 3.235394843
v -0.017679171 -0.050000000 3.235394843
v -0.300000000 -0.060000000 2.403704499
v -0.300000000 0.000000000 2.298508537
v -0.015965657 0.000000000 3.234844282
v -0.015965657 -0.050000000 3.234844282
v -0.300000000 -0.060000000 2.298508537
v -0.300000000 0.000000000 2.167860758
v -0.014235047 0.000000000 3.234350080
v -0.014235047 -0.050000000 3.234350080
v -0.300000000 -0.060000000 2.167860758
v -0.300000000 0.000000000 2.000846170
v -0.012489194 0.000000000 3.233912766
v -0.012489194 -0.050000000 3.233912766
v -0.300000000 -0.060000000 2.000846170
v -0.300000000 0.000000000 1.779274152
v -0.010729968 0.000000000 3.233532810
v -0.010729968 -0.050000000 3.233532810
v -0.300000000 -0.060000000 1.779274152
v -0.300000000 0.000000000 1.470402797
v -0.008959251 0.000000000 3.233210617
v -0.008959251 -0.050000000 3.233210617
v -0.300000000 -0.060000000 1.470402797
v -0.300000000 0.000000000 1.008749766
v -0.007178941 0.000000000 3.232946533
v -0.007178941 -0.050000000 3.232946533
v -0.300000000 -0.060000000 1.008749766
v -0.300000000 0.000000000 0.241524884
v -0.005390943 0.000000000 3.232740840
v -0.005390943 -0.050000000 3.232740840
v -0.300000000 -0.060000000 0.241524884
v -0.300000000 0.000000000 -0.600000000
v -0.004231817 0.000000000 3.232639044
v -0.004231817 -0.050000000 3.232639044
v -0.300000000 -0.060000000 -0.600000000
v -0.254798639 0.000000000 -0.600000000
v -0.003597172 0.000000000 3.232593759
v -0.003597172 -0.050000000 3.232593759
v -0.254798639 -0.060000000 -0.600000000
v -0.127262787 0.000000000 -0.600000000
v -0.001799550 0.000000000 3.232505448
v -0.001799550 -0.050000000 3.232505448
v -0.127262787 -0.060000000 -0.600000000
v -0.000000000 0.000000000 -0.600000000
v -0.000000000 0.000000000 3.232476000
v -0.000000000 -0.050000000 3.232476000
v -0.000000000 -0.060000000 -0.600000000
v 0.127262787 0.000000000 -0.600000000
v 0.001799550 0.000000000 3.232505448
v 0.001799550 -0.050000000 3.232505448
v 0.127262787 -0.060000000 -0.600000000
v 0.254798639 0.000000000 -0.600000000
v 0.003597172 0.000000000 3.232593759
v 0.003597172 -0.050000000 3.232593759
v 0.254798639 -0.060000000 -0.600000000
v 0.300000000 0.000000000 -0.600000000
v 0.004231817 0.000000000 3.232639044
v 0.004231817 -0.050000000 3.232639044
v 0.300000000 -0.060000000 -0.600000000
v 0.300000000 0.000000000 0.241524884
v 0.005390943 0.000000000 3.232740840
v 0.005390943 -0.050000000 3.232740840
v 0.300000000 -0.060000000 0.241524884
v 0.300000000 0.000000000 1.008749766
v 0.007178941 0.000000000 3.232946533
v 0.007178941 -0.050000000 3.232946533
v 0.300000000 -0.060000000 1.008749766
v 0.300000000 0.000000000 1.470402797
v 0.008959251 0.000000000 3.233210617
v 0.008959251 -0.050000000 3.233210617
v 0.300000000 -0.060000000 1.470402797
v 0.300000000 0.000000000 1.779274152
v 0.010729968 0.000000000 3.233532810
v 0.010729968 -0.050000000 3.233532810
v 0.300000000 -0.060000000 1.779274152
v 0.300000000 0.000000000 2.000846170
v 0.012489194 0.000000000 3.233912766
v 0.012489194 -0.050000000 3.233912766
v 0.300000000 -0.060000000 2.000846170
v 0.300000000 0.000000000 2.167860758
v 0.014235047 0.000000000 3.234350080
v 0.014235047 -0.050000000 3.234350080
v 0.300000000 -0.060000000 2.167860758
v 0.300000000 0.000000000 2.298508537
v 0.015965657 0.000000000 3.234844282
v 0.015965657 -0.050000000 3.234844282
v 0.300000000 -0.060000000 2.298508537
v 0.300000000 0.000000000 2.403704499
v 0.017679171 0.000000000 3.235394843
v 0.017679171 -0.050000000 3.235394843
v 0.300000000 -0.060000000 2.403704499
v 0.300000000 0.000000000 2.490395120
v 0.019373753 0.000000000 3.236001174
v 0.019373753 -0.050000000 3.236001174
v 0.300000000 -0.060000000 2.490395120
v 0.300000000 0.000000000 2.563211931
v 0.021047589 0.000000000 3.236662626
v 0.021047589 -0.050000000 3.236662626
v 0.300000000 -0.060000000 2.563211931
v 0.300000000 0.000000000 2.625361891
v 0.022698887 0.000000000 3.237378490
v 0.022698887 -0.050000000 3.237378490
v 0.300000000 -0.060000000 2.625361891
v 0.300000000 0.000000000 2.679136179
v 0.024325878 0.000000000 3.238147999
v 0.024325878 -0.050000000 3.238147999
v 0.300000000 -0.060000000 2.679136179
v 0.300000000 0.000000000 2.726215476
v 0.025926821 0.000000000 3.238970330
v 0.025926821 -0.050000000 3.238970330
v 0.300000000 -0.060000000 2.726215476
v 0.300000000 0.000000000 2.767860758
v 0.027500000 0.000000000 3.239844603
v 0.027500000 -0.050000000 3.239844603
v 0.300000000 -0.060000000 2.767860758
v 0.300000000 0.000000000 2.805036756
v 0.029043732 0.000000000 3.240769880
v 0.029043732 -0.050000000 3.240769880
v 0.300000000 -0.060000000 2.805036756
v 0.300000000 0.000000000 2.838494271
v 0.030556363 0.000000000 3.241745171
v 0.030556363 -0.050000000 3.241745171
v 0.300000000 -0.060000000 2.838494271
v 0.300000000 0.000000000 2.868826485
v 0.032036273 0.000000000 3.242769432
v 0.032036273 -0.050000000 3.242769432
v 0.300000000 -0.060000000 2.868826485
v 0.300000000 0.000000000 2.896508388
v 0.033481879 0.000000000 3.243841566
v 0.033481879 -0.050000000 3.243841566
v 0.300000000 -0.060000000 2.896508388
v 0.300000000 0.000000000 2.921924942
v 0.034891631 0.000000000 3.244960425
v 0.034891631 -0.050000000 3.244960425
v 0.300000000 -0.060000000 2.921924942
v 0.300000000 0.000000000 2.945391563
v 0.036264020 0.000000000 3.246124811
v 0.036264020 -0.050000000 3.246124811
v 0.300000000 -0.060000000 2.945391563
v 0.300000000 0.000000000 2.967169260
v 0.037597577 0.000000000 3.247333476
v 0.037597577 -0.050000000 3.247333476
v 0.300000000 -0.060000000 2.967169260
v 0.300000000 0.000000000 2.987476000
v 0.038890873 0.000000000 3.248585127
v 0.038890873 -0.050000000 3.248585127
v 0.300000000 -0.060000000 2.987476000
v 0.300000000 0.000000000 3.006495338
v 0.040142524 0.000000000 3.249878423
v 0.040142524 -0.050000000 3.249878423
v 0.300000000 -0.060000000 3.006495338
v 0.300000000 0.000000000 3.024383061
v 0.041351189 0.000000000 3.251211980
v 0.041351189 -0.050000000 3.251211980
v 0.300000000 -0.060000000 3.024383061
v 0.300000000 0.000000000 3.041272363
v 0.042515575 0.000000000 3.252584369
v 0.042515575 -0.050000000 3.252584369
v 0.300000000 -0.060000000 3.041272363
v 0.300000000 0.000000000 3.057277904
v 0.043634434 0.000000000 3.253994121
v 0.043634434 -0.050000000 3.253994121
v 0.300000000 -0.060000000 3.057277904
v 0.300000000 0.000000000 3.072499040
v 0.044706568 0.000000000 3.255439727
v 0.044706568 -0.050000000 3.255439727
v 0.300000000 -0.060000000 3.072499040
v 0.300000000 0.000000000 3.087022409
v 0.045730829 0.000000000 3.256919637
v 0.045730829 -0.050000000 3.256919637
v 0.300000000 -0.060000000 3.087022409
v 0.300000000 0.000000000 3.100924012
v 0.046706120 0.000000000 3.258432268
v 0.046706120 -0.050000000 3.258432268
v 0.300000000 -0.060000000 3.100924012
v 0.300000000 0.000000000 3.114270919
v 0.047631397 0.000000000 3.259976000
v 0.047631397 -0.050000000 3.259976000
v 0.300000000 -0.060000000 3.114270919
v 0.300000000 0.000000000 3.127122659
v 0.048505670 0.000000000 3.261549179
v 0.048505670 -0.050000000 3.261549179
v 0.300000000 -0.060000000 3.127122659
v 0.300000000 0.000000000 3.139532372
v 0.049328001 0.000000000 3.263150122
v 0.049328001 -0.050000000 3.263150122
v 0.300000000 -0.060000000 3.139532372
v 0.300000000 0.000000000 3.151547768
v 0.050097510 0.000000000 3.264777113
v 0.050097510 -0.050000000 3.264777113
v 0.300000000 -0.060000000 3.151547768
v 0.300000000 0.000000000 3.163211931
v 0.050813374 0.000000000 3.266428411
v 0.050813374 -0.050000000 3.266428411
v 0.300000000 -0.060000000 3.163211931
v 0.300000000 0.000000000 3.174563995
v 0.051474826 0.000000000 3.268102247
v 0.051474826 -0.050000000 3.268102247
v 0.300000000 -0.060000000 3.174563995
v 0.300000000 0.000000000 3.185639722
v 0.052081157 0.000000000 3.269796829
v 0.052081157 -0.050000000 3.269796829
v 0.300000000 -0.060000000 3.185639722
v 0.300000000 0.000000000 3.196471995
v 0.052631718 0.000000000 3.271510343
v 0.052631718 -0.050000000 3.271510343
v 0.300000000 -0.060000000 3.196471995
v 0.300000000 0.000000000 3.207091242
v 0.053125920 0.000000000 3.273240953
v 0.053125920 -0.050000000 3.273240953
v 0.300000000 -0.060000000 3.207091242
v 0.300000000 0.000000000 3.217525811
v 0.053563234 0.000000000 3.274986806
v 0.053563234 -0.050000000 3.274986806
v 0.300000000 -0.060000000 3.217525811
v 0.300000000 0.000000000 3.227802290
v 0.053943190 0.000000000 3.276746032
v 0.053943190 -0.050000000 3.276746032
v 0.300000000 -0.060000000 3.227802290
v 0.300000000 0.000000000 3.237945800
v 0.054265383 0.000000000 3.278516749
v 0.054265383 -0.050000000 3.278516749
v 0.300000000 -0.060000000 3.237945800
v 0.300000000 0.000000000 3.247980251
v 0.054529467 0.000000000 3.280297059
v 0.054529467 -0.050000000 3.280297059
v 0.300000000 -0.060000000 3.247980251
v 0.300000000 0.000000000 3.257928579
v 0.054735160 0.000000000 3.282085057
v 0.054735160 -0.050000000 3.282085057
v 0.300000000 -0.060000000 3.257928579
v 0.300000000 0.000000000 3.267812961
v 0.054882241 0.000000000 3.283878828
v 0.054882241 -0.050000000 3.283878828
v 0.300000000 -0.060000000 3.267812961
v 0.300000000 0.000000000 3.277655017
v 0.054970552 0.000000000 3.285676450
v 0.054970552 -0.050000000 3.285676450
v 0.300000000 -0.060000000 3.277655017
v 0.000000000 -0.050000000 3.287476000
v 0.000000000 -0.060000000 3.287476000
usemtl Turf
f 1 2 6
f 1 6 5
usemtl Cup
f 2 3 7
f 2 7 6
f 777 7 3
usemtl Turf
f 1 5 8
f 1 8 4
f 778 4 8
f 5 6 10
f 5 10 9
usemtl Cup
f 6 7 11
f 6 11 10
f 777 11 7
usemtl Turf
f 5 9 12
f 5 12 8
f 778 8 12
f 9 10 14
f 9 14 13
usemtl Cup
f 10 11 15
f 10 15 14
f 777 15 11
usemtl Turf
f 9 13 16
f 9 16 12
f 778 12 16
f 13 14 18
f 13 18 17
usemtl Cup
f 14 15 19
f 14 19 18
f 777 19 15
usemtl Turf
f 13 17 20
f 13 20 16
f 778 16 20
f 17 18 22
f 17 22 21
usemtl Cup
f 18 19 23
f 18 23 22
f 777 23 19
usemtl Turf
f 17 21 24
f 17 24 20
f 778 20 24
f 21 22 26
f 21 26 25
usemtl Cup
f 22 23 27
f 22 27 26
f 777 27 23
usemtl Turf
f 21 25 28
f 21 28 24
f 778 24 28
f 25 26 30
f 25 30 29
usemtl Cup
f 26 27 31
f 26 31 30
f 777 31 27
usemtl Turf
f 25 29 32
f 25 32 28
f 778 28 32
f 29 30 34
f 29 34 33
usemtl Cup
f 30 31 35
f 30 35 34
f 777 35 31
usemtl Turf
f 29 33 36
f 29 36 32
f 778 32 36
f 33 34 38
f 33 38 37
usemtl Cup
f 34 35 39
f 34 39 38
f 777 39 35
usemtl Turf
f 33 37 40
f 33 40 36
f 778 36 40
f 37 38 42
f 37 42 41
usemtl Cup
f 38 39 43
f 38 43 42
f 777 43 39
usemtl Turf
f 37 41 44
f 37 44 40
f 778 40 44
f 41 42 46
f 41 46 45
usemtl Cup
f 42 43 47
f 42 47 46
f 777 47 43
usemtl Turf
f 41 45 48
f 41 48 44
f 778 44 48
f 45 46 50
f 45 50 49
usemtl Cup
f 46 47 51
f 46 51 50
f 777 51 47
usemtl Turf
f 45 49 52
f 45 52 48
f 778 48 52
f 49 50 54
f 49 54 53
usemtl Cup
f 50 51 55
f 50 55 54
f 777 55 51
usemtl Turf
f 49 53 56
f 49 56 52
f 778 52 56
f 53 54 58
f 53 58 57
usemtl Cup
f 54 55 59
f 54 59 58
f 777 59 55
usemtl Turf
f 53 57 60
f 53 60 56
f 778 56 60
f 57 58 62
f 57 62 61
usemtl Cup
f 58 59 63
f 58 63 62
f 777 63 59
usemtl Turf
f 57 61 64
f 57 64 60
f 778 60 64
f 61 62 66
f 61 66 65
usemtl Cup
f 62 63 67
f 62 67 66
f 777 67 63
usemtl Turf
f 61 65 68
f 61 68 64
f 778 64 68
f 65 66 70
f 65 70 69
usemtl Cup
f 66 67 71
f 66 71 70
f 777 71 67
usemtl Turf
f 65 69 72
f 65 72 68
f 778 68 72
f 69 70 74
f 69 74 73
usemtl Cup
f 70 71 75
f 70 75 74
f 777 75 71
usemtl Turf
f 69 73 76
f 69 76 72
f 778 72 76
f 73 74 78
f 73 78 77
usemtl Cup
f 74 75 79
f 74 79 78
f 777 79 75
usemtl Turf
f 73 77 80
f 73 80 76
f 778 76 80
f 77 78 82
f 77 82 81
usemtl Cup
f 78 79 83
f 78 83 82
f 777 83 79
usemtl Turf
f 77 81 84
f 77 84 80
f 778 80 84
f 81 82 86
f 81 86 85
usemtl Cup
f 82 83 87
f 82 87 86
f 777 87 83
usemtl Turf
f 81 85 88
f 81 88 84
f 778 84 88
f 85 86 90
f 85 90 89
usemtl Cup
f 86 87 91
f 86 91 90
f 777 91 87
usemtl Turf
f 85 89 92
f 85 92 88
f 778 88 92
f 89 90 94
f 89 94 93
usemtl Cup
f 90 91 95
f 90 95 94
f 777 95 91
usemtl Turf
f 89 93 96
f 89 96 92
f 778 92 96
f 93 94 98
f 93 98 97
usemtl Cup
f 94 95 99
f 94 99 98
f 777 99 95
usemtl Turf
f 93 97 100
f 93 100 96
f 778 96 100
f 97 98 102
f 97 102 101
usemtl Cup
f 98 99 103
f 98 103 102
f 777 103 99
usemtl Turf
f 97 101 104
f 97 104 100
f 778 100 104
f 101 102 106
f 101 106 105
usemtl Cup
f 102 103 107
f 102 107 106
f 777 107 103
usemtl Turf
f 101 105 108
f 101 108 104
f 778 104 108
f 105 106 110
f 105 110 109
usemtl Cup
f 106 107 111
f 106 111 110
f 777 111 107
usemtl Turf
f 105 109 112
f 105 112 108
f 778 108 112
f 109 110 114
f 109 114 113
usemtl Cup
f 110 111 115
f 110 115 114
f 777 115 111
usemtl Turf
f 109 113 116
f 109 116 112
f 778 112 116
f 113 114 118
f 113 118 117
usemtl Cup
f 114 115 119
f 114 119 118
f 777 119 115
usemtl Turf
f 113 117 120
f 113 120 116
f 778 116 120
f 117 118 122
f 117 122 121
usemtl Cup
f 118 119 123
f 118 123 122
f 777 123 119
usemtl Turf
f 117 121 124
f 117 124 120
f 778 120 124
f 121 122 126
f 121 126 125
usemtl Cup
f 122 123 127
f 122 127 126
f 777 127 123
usemtl Turf
f 121 125 128
f 121 128 124
f 778 124 128
f 125 126 130
f 125 130 129
usemtl Cup
f 126 127 131
f 126 131 130
f 777 131 127
usemtl Turf
f 125 129 132
f 125 132 128
f 778 128 132
f 129 130 134
f 129 134 133
usemtl Cup
f 130 131 135
f 130 135 134
f 777 135 131
usemtl Turf
f 129 133 136
f 129 136 132
f 778 132 136
f 133 134 138
f 133 138 137
usemtl Cup
f 134 135 139
f 134 139 138
f 777 139 135
usemtl Turf
f 133 137 140
f 133 140 136
f 778 136 140
f 137 138 142
f 137 142 141
usemtl Cup
f 138 139 143
f 138 143 142
f 777 143 139
usemtl Turf
f 137 141 144
f 137 144 140
f 778 140 144
f 141 142 146
f 141 146 145
usemtl Cup
f 142 143 147
f 142 147 146
f 777 147 143
usemtl Turf
f 141 145 148
f 141 148 144
f 778 144 148
f 145 146 150
f 145 150 149
usemtl Cup
f 146 147 151
f 146 151 150
f 777 151 147
usemtl Turf
f 145 149 152
f 145 152 148
f 778 148 152
f 149 150 154
f 149 154 153
usemtl Cup
f 150 151 155
f 150 155 154
f 777 155 151
usemtl Turf
f 149 153 156
f 149 156 152
f 778 152 156
f 153 154 158
f 153 158 157
usemtl Cup
f 154 155 159
f 154 159 158
f 777 159 155
usemtl Turf
f 153 157 160
f 153 160 156
f 778 156 160
f 157 158 162
f 157 162 161
usemtl Cup
f 158 159 163
f 158 163 162
f 777 163 159
usemtl Turf
f 157 161 164
f 157 164 160
f 778 160 164
f 161 162 166
f 161 166 165
usemtl Cup
f 162 163 167
f 162 167 166
f 777 167 163
usemtl Turf
f 161 165 168
f 161 168 164
f 778 164 168
f 165 166 170
f 165 170 169
usemtl Cup
f 166 167 171
f 166 171 170
f 777 171 167
usemtl Turf
f 165 169 172
f 165 172 168
f 778 168 172
f 169 170 174
f 169 174 173
usemtl Cup
f 170 171 175
f 170 175 174
f 777 175 171
usemtl Turf
f 169 173 176
f 169 176 172
f 778 172 176
f 173 174 178
f 173 178 177
usemtl Cup
f 174 175 179
f 174 179 178
f 777 179 175
usemtl Turf
f 173 177 180
f 173 180 176
f 778 176 180
f 177 178 182
f 177 182 181
usemtl Cup
f 178 179 183
f 178 183 182
f 777 183 179
usemtl Turf
f 177 181 184
f 177 184 180
f 778 180 184
f 181 182 186
f 181 186 185
usemtl Cup
f 182 183 187
f 182 187 186
f 777 187 183
usemtl Turf
f 181 185 188
f 181 188 184
f 778 184 188
f 185 186 190
f 185 190 189
usemtl Cup
f 186 187 191
f 186 191 190
f 777 191 187
usemtl Turf
f 185 189 192
f 185 192 188
f 778 188 192
f 189 190 194
f 189 194 193
usemtl Cup
f 190 191 195
f 190 195 194
f 777 195 191
usemtl Turf
f 189 193 196
f 189 196 192
f 778 192 196
f 193 194 198
f 193 198 197
usemtl Cup
f 194 195 199
f 194 199 198
f 777 199 195
usemtl Turf
f 193 197 200
f 193 200 196
f 778 196 200
f 197 198 202
f 197 202 201
usemtl Cup
f 198 199 203
f 198 203 202
f 777 203 199
usemtl Turf
f 197 201 204
f 197 204 200
f 778 200 204
f 201 202 206
f 201 206 205
usemtl Cup
f 202 203 207
f 202 207 206
f 777 207 203
usemtl Turf
f 201 205 208
f 201 208 204
f 778 204 208
f 205 206 210
f 205 210 209
usemtl Cup
f 206 207 211
f 206 211 210
f 777 211 207
usemtl Turf
f 205 209 212
f 205 212 208
f 778 208 212
f 209 210 214
f 209 214 213
usemtl Cup
f 210 211 215
f 210 215 214
f 777 215 211
usemtl Turf
f 209 213 216
f 209 216 212
f 778 212 216
f 213 214 218
f 213 218 217
usemtl Cup
f 214 215 219
f 214 219 218
f 777 219 215
usemtl Turf
f 213 217 220
f 213 220 216
f 778 216 220
f 217 218 222
f 217 222 221
usemtl Cup
f 218 219 223
f 218 223 222
f 777 223 219
usemtl Turf
f 217 221 224
f 217 224 220
f 778 220 224
f 221 222 226
f 221 226 225
usemtl Cup
f 222 223 227
f 222 227 226
f 777 227 223
usemtl Turf
f 221 225 228
f 221 228 224
f 778 224 228
f 225 226 230
f 225 230 229
usemtl Cup
f 226 227 231
f 226 231 230
f 777 231 227
usemtl Turf
f 225 229 232
f 225 232 228
f 778 228 232
f 229 230 234
f 229 234 233
usemtl Cup
f 230 231 235
f 230 235 234
f 777 235 231
usemtl Turf
f 229 233 236
f 229 236 232
f 778 232 236
f 233 234 238
f 233 238 237
usemtl Cup
f 234 235 239
f 234 239 238
f 777 239 235
usemtl Turf
f 233 237 240
f 233 240 236
f 778 236 240
f 237 238 242
f 237 242 241
usemtl Cup
f 238 239 243
f 238 243 242
f 777 243 239
usemtl Turf
f 237 241 244
f 237 244 240
f 778 240 244
f 241 242 246
f 241 246 245
usemtl Cup
f 242 243 247
f 242 247 246
f 777 247 243
usemtl Turf
f 241 245 248
f 241 248 244
f 778 244 248
f 245 246 250
f 245 250 249
usemtl Cup
f 246 247 251
f 246 251 250
f 777 251 247
usemtl Turf
f 245 249 252
f 245 252 248
f 778 248 252
f 249 250 254
f 249 254 253
usemtl Cup
f 250 251 255
f 250 255 254
f 777 255 251
usemtl Turf
f 249 253 256
f 249 256 252
f 778 252 256
f 253 254 258
f 253 258 257
usemtl Cup
f 254 255 259
f 254 259 258
f 777 259 255
usemtl Turf
f 253 257 260
f 253 260 256
f 778 256 260
f 257 258 262
f 257 262 261
usemtl Cup
f 258 259 263
f 258 263 262
f 777 263 259
usemtl Turf
f 257 261 264
f 257 264 260
f 778 260 264
f 261 262 266
f 261 266 265
usemtl Cup
f 262 263 267
f 262 267 266
f 777 267 263
usemtl Turf
f 261 265 268
f 261 268 264
f 778 264 268
f 265 266 270
f 265 270 269
usemtl Cup
f 266 267 271
f 266 271 270
f 777 271 267
usemtl Turf
f 265 269 272
f 265 272 268
f 778 268 272
f 269 270 274
f 269 274 273
usemtl Cup
f 270 271 275
f 270 275 274
f 777 275 271
usemtl Turf
f 269 273 276
f 269 276 272
f 778 272 276
f 273 274 278
f 273 278 277
usemtl Cup
f 274 275 279
f 274 279 278
f 777 279 275
usemtl Turf
f 273 277 280
f 273 280 276
f 778 276 280
f 277 278 282
f 277 282 281
usemtl Cup
f 278 279 283
f 278 283 282
f 777 283 279
usemtl Turf
f 277 281 284
f 277 284 280
f 778 280 284
f 281 282 286
f 281 286 285
usemtl Cup
f 282 283 287
f 282 287 286
f 777 287 283
usemtl Turf
f 281 285 288
f 281 288 284
f 778 284 288
f 285 286 290
f 285 290 289
usemtl Cup
f 286 287 291
f 286 291 290
f 777 291 287
usemtl Turf
f 285 289 292
f 285 292 288
f 778 288 292
f 289 290 294
f 289 294 293
usemtl Cup
f 290 291 295
f 290 295 294
f 777 295 291
usemtl Turf
f 289 293 296
f 289 296 292
f 778 292 296
f 293 294 298
f 293 298 297
usemtl Cup
f 294 295 299
f 294 299 298
f 777 299 295
usemtl Turf
f 293 297 300
f 293 300 296
f 778 296 300
f 297 298 302
f 297 302 301
usemtl Cup
f 298 299 303
f 298 303 302
f 777 303 299
usemtl Turf
f 297 301 304
f 297 304 300
f 778 300 304
f 301 302 306
f 301 306 305
usemtl Cup
f 302 303 307
f 302 307 306
f 777 307 303
usemtl Turf
f 301 305 308
f 301 308 304
f 778 304 308
f 305 306 310
f 305 310 309
usemtl Cup
f 306 307 311
f 306 311 310
f 777 311 307
usemtl Turf
f 305 309 312
f 305 312 308
f 778 308 312
f 309 310 314
f 309 314 313
usemtl Cup
f 310 311 315
f 310 315 314
f 777 315 311
usemtl Turf
f 309 313 316
f 309 316 312
f 778 312 316
f 313 314 318
f 313 318 317
usemtl Cup
f 314 315 319
f 314 319 318
f 777 319 315
usemtl Turf
f 313 317 320
f 313 320 316
f 778 316 320
f 317 318 322
f 317 322 321
usemtl Cup
f 318 319 323
f 318 323 322
f 777 323 319
usemtl Turf
f 317 321 324
f 317 324 320
f 778 320 324
f 321 322 326
f 321 326 325
usemtl Cup
f 322 323 327
f 322 327 326
f 777 327 323
usemtl Turf
f 321 325 328
f 321 328 324
f 778 324 328
f 325 326 330
f 325 330 329
usemtl Cup
f 326 327 331
f 326 331 330
f 777 331 327
usemtl Turf
f 325 329 332
f 325 332 328
f 778 328 332
f 329 330 334
f 329 334 333
usemtl Cup
f 330 331 335
f 330 335 334
f 777 335 331
usemtl Turf
f 329 333 336
f 329 336 332
f 778 332 336
f 333 334 338
f 333 338 337
usemtl Cup
f 334 335 339
f 334 339 338
f 777 339 335
usemtl Turf
f 333 337 340
f 333 340 336
f 778 336 340
f 337 338 342
f 337 342 341
usemtl Cup
f 338 339 343
f 338 343 342
f 777 343 339
usemtl Turf
f 337 341 344
f 337 344 340
f 778 340 344
f 341 342 346
f 341 346 345
usemtl Cup
f 342 343 347
f 342 347 346
f 777 347 343
usemtl Turf
f 341 345 348
f 341 348 344
f 778 344 348
f 345 346 350
f 345 350 349
usemtl Cup
f 346 347 351
f 346 351 350
f 777 351 347
usemtl Turf
f 345 349 352
f 345 352 348
f 778 348 352
f 349 350 354
f 349 354 353
usemtl Cup
f 350 351 355
f 350 355 354
f 777 355 351
usemtl Turf
f 349 353 356
f 349 356 352
f 778 352 356
f 353 354 358
f 353 358 357
usemtl Cup
f 354 355 359
f 354 359 358
f 777 359 355
usemtl Turf
f 353 357 360
f 353 360 356
f 778 356 360
f 357 358 362
f 357 362 361
usemtl Cup
f 358 359 363
f 358 363 362
f 777 363 359
usemtl Turf
f 357 361 364
f 357 364 360
f 778 360 364
f 361 362 366
f 361 366 365
usemtl Cup
f 362 363 367
f 362 367 366
f 777 367 363
usemtl Turf
f 361 365 368
f 361 368 364
f 778 364 368
f 365 366 370
f 365 370 369
usemtl Cup
f 366 367 371
f 366 371 370
f 777 371 367
usemtl Turf
f 365 369 372
f 365 372 368
f 778 368 372
f 369 370 374
f 369 374 373
usemtl Cup
f 370 371 375
f 370 375 374
f 777 375 371
usemtl Turf
f 369 373 376
f 369 376 372
f 778 372 376
f 373 374 378
f 373 378 377
usemtl Cup
f 374 375 379
f 374 379 378
f 777 379 375
usemtl Turf
f 373 377 380
f 373 380 376
f 778 376 380
f 377 378 382
f 377 382 381
usemtl Cup
f 378 379 383
f 378 383 382
f 777 383 379
usemtl Turf
f 377 381 384
f 377 384 380
f 778 380 384
f 381 382 386
f 381 386 385
usemtl Cup
f 382 383 387
f 382 387 386
f 777 387 383
usemtl Turf
f 381 385 388
f 381 388 384
f 778 384 388
f 385 386 390
f 385 390 389
usemtl Cup
f 386 387 391
f 386 391 390
f 777 391 387
usemtl Turf
f 385 389 392
f 385 392 388
f 778 388 392
f 389 390 394
f 389 394 393
usemtl Cup
f 390 391 395
f 390 395 394
f 777 395 391
usemtl Turf
f 389 393 396
f 389 396 392
f 778 392 396
f 393 394 398
f 393 398 397
usemtl Cup
f 394 395 399
f 394 399 398
f 777 399 395
usemtl Turf
f 393 397 400
f 393 400 396
f 778 396 400
f 397 398 402
f 397 402 401
usemtl Cup
f 398 399 403
f 398 403 402
f 777 403 399
usemtl Turf
f 397 401 404
f 397 404 400
f 778 400 404
f 401 402 406
f 401 406 405
usemtl Cup
f 402 403 407
f 402 407 406
f 777 407 403
usemtl Turf
f 401 405 408
f 401 408 404
f 778 404 408
f 405 406 410
f 405 410 409
usemtl Cup
f 406 407 411
f 406 411 410
f 777 411 407
usemtl Turf
f 405 409 412
f 405 412 408
f 778 408 412
f 409 410 414
f 409 414 413
usemtl Cup
f 410 411 415
f 410 415 414
f 777 415 411
usemtl Turf
f 409 413 416
f 409 416 412
f 778 412 416
f 413 414 418
f 413 418 417
usemtl Cup
f 414 415 419
f 414 419 418
f 777 419 415
usemtl Turf
f 413 417 420
f 413 420 416
f 778 416 420
f 417 418 422
f 417 422 421
usemtl Cup
f 418 419 423
f 418 423 422
f 777 423 419
usemtl Turf
f 417 421 424
f 417 424 420
f 778 420 424
f 421 422 426
f 421 426 425
usemtl Cup
f 422 423 427
f 422 427 426
f 777 427 423
usemtl Turf
f 421 425 428
f 421 428 424
f 778 424 428
f 425 426 430
f 425 430 429
usemtl Cup
f 426 427 431
f 426 431 430
f 777 431 427
usemtl Turf
f 425 429 432
f 425 432 428
f 778 428 432
f 429 430 434
f 429 434 433
usemtl Cup
f 430 431 435
f 430 435 434
f 777 435 431
usemtl Turf
f 429 433 436
f 429 436 432
f 778 432 436
f 433 434 438
f 433 438 437
usemtl Cup
f 434 435 439
f 434 439 438
f 777 439 435
usemtl Turf
f 433 437 440
f 433 440 436
f 778 436 440
f 437 438 442
f 437 442 441
usemtl Cup
f 438 439 443
f 438 443 442
f 777 443 439
usemtl Turf
f 437 441 444
f 437 444 440
f 778 440 444
f 441 442 446
f 441 446 445
usemtl Cup
f 442 443 447
f 442 447 446
f 777 447 443
usemtl Turf
f 441 445 448
f 441 448 444
f 778 444 448
f 445 446 450
f 445 450 449
usemtl Cup
f 446 447 451
f 446 451 450
f 777 451 447
usemtl Turf
f 445 449 452
f 445 452 448
f 778 448 452
f 449 450 454
f 449 454 453
usemtl Cup
f 450 451 455
f 450 455 454
f 777 455 451
usemtl Turf
f 449 453 456
f 449 456 452
f 778 452 456
f 453 454 458
f 453 458 457
usemtl Cup
f 454 455 459
f 454 459 458
f 777 459 455
usemtl Turf
f 453 457 460
f 453 460 456
f 778 456 460
f 457 458 462
f 457 462 461
usemtl Cup
f 458 459 463
f 458 463 462
f 777 463 459
usemtl Turf
f 457 461 464
f 457 464 460
f 778 460 464
f 461 462 466
f 461 466 465
usemtl Cup
f 462 463 467
f 462 467 466
f 777 467 463
usemtl Turf
f 461 465 468
f 461 468 464
f 778 464 468
f 465 466 470
f 465 470 469
usemtl Cup
f 466 467 471
f 466 471 470
f 777 471 467
usemtl Turf
f 465 469 472
f 465 472 468
f 778 468 472
f 469 470 474
f 469 474 473
usemtl Cup
f 470 471 475
f 470 475 474
f 777 475 471
usemtl Turf
f 469 473 476
f 469 476 472
f 778 472 476
f 473 474 478
f 473 478 477
usemtl Cup
f 474 475 479
f 474 479 478
f 777 479 475
usemtl Turf
f 473 477 480
f 473 480 476
f 778 476 480
f 477 478 482
f 477 482 481
usemtl Cup
f 478 479 483
f 478 483 482
f 777 483 479
usemtl Turf
f 477 481 484
f 477 484 480
f 778 480 484
f 481 482 486
f 481 486 485
usemtl Cup
f 482 483 487
f 482 487 486
f 777 487 483
usemtl Turf
f 481 485 488
f 481 488 484
f 778 484 488
f 485 486 490
f 485 490 489
usemtl Cup
f 486 487 491
f 486 491 490
f 777 491 487
usemtl Turf
f 485 489 492
f 485 492 488
f 778 488 492
f 489 490 494
f 489 494 493
usemtl Cup
f 490 491 495
f 490 495 494
f 777 495 491
usemtl Turf
f 489 493 496
f 489 496 492
f 778 492 496
f 493 494 498
f 493 498 497
usemtl Cup
f 494 495 499
f 494 499 498
f 777 499 495
usemtl Turf
f 493 497 500
f 493 500 496
f 778 496 500
f 497 498 502
f 497 502 501
usemtl Cup
f 498 499 503
f 498 503 502
f 777 503 499
usemtl Turf
f 497 501 504
f 497 504 500
f 778 500 504
f 501 502 506
f 501 506 505
usemtl Cup
f 502 503 507
f 502 507 506
f 777 507 503
usemtl Turf
f 501 505 508
f 501 508 504
f 778 504 508
f 505 506 510
f 505 510 509
usemtl Cup
f 506 507 511
f 506 511 510
f 777 511 507
usemtl Turf
f 505 509 512
f 505 512 508
f 778 508 512
f 509 510 514
f 509 514 513
usemtl Cup
f 510 511 515
f 510 515 514
f 777 515 511
usemtl Turf
f 509 513 516
f 509 516 512
f 778 512 516
f 513 514 518
f 513 518 517
usemtl Cup
f 514 515 519
f 514 519 518
f 777 519 515
usemtl Turf
f 513 517 520
f 513 520 516
f 778 516 520
f 517 518 522
f 517 522 521
usemtl Cup
f 518 519 523
f 518 523 522
f 777 523 519
usemtl Turf
f 517 521 524
f 517 524 520
f 778 520 524
f 521 522 526
f 521 526 525
usemtl Cup
f 522 523 527
f 522 527 526
f 777 527 523
usemtl Turf
f 521 525 528
f 521 528 524
f 778 524 528
f 525 526 530
f 525 530 529
usemtl Cup
f 526 527 531
f 526 531 530
f 777 531 527
usemtl Turf
f 525 529 532
f 525 532 528
f 778 528 532
f 529 530 534
f 529 534 533
usemtl Cup
f 530 531 535
f 530 535 534
f 777 535 531
usemtl Turf
f 529 533 536
f 529 536 532
f 778 532 536
f 533 534 538
f 533 538 537
usemtl Cup
f 534 535 539
f 534 539 538
f 777 539 535
usemtl Turf
f 533 537 540
f 533 540 536
f 778 536 540
f 537 538 542
f 537 542 541
usemtl Cup
f 538 539 543
f 538 543 542
f 777 543 539
usemtl Turf
f 537 541 544
f 537 544 540
f 778 540 544
f 541 542 546
f 541 546 545
usemtl Cup
f 542 543 547
f 542 547 546
f 777 547 543
usemtl Turf
f 541 545 548
f 541 548 544
f 778 544 548
f 545 546 550
f 545 550 549
usemtl Cup
f 546 547 551
f 546 551 550
f 777 551 547
usemtl Turf
f 545 549 552
f 545 552 548
f 778 548 552
f 549 550 554
f 549 554 553
usemtl Cup
f 550 551 555
f 550 555 554
f 777 555 551
usemtl Turf
f 549 553 556
f 549 556 552
f 778 552 556
f 553 554 558
f 553 558 557
usemtl Cup
f 554 555 559
f 554 559 558
f 777 559 555
usemtl Turf
f 553 557 560
f 553 560 556
f 778 556 560
f 557 558 562
f 557 562 561
usemtl Cup
f 558 559 563
f 558 563 562
f 777 563 559
usemtl Turf
f 557 561 564
f 557 564 560
f 778 560 564
f 561 562 566
f 561 566 565
usemtl Cup
f 562 563 567
f 562 567 566
f 777 567 563
usemtl Turf
f 561 565 568
f 561 568 564
f 778 564 568
f 565 566 570
f 565 570 569
usemtl Cup
f 566 567 571
f 566 571 570
f 777 571 567
usemtl Turf
f 565 569 572
f 565 572 568
f 778 568 572
f 569 570 574
f 569 574 573
usemtl Cup
f 570 571 575
f 570 575 574
f 777 575 571
usemtl Turf
f 569 573 576
f 569 576 572
f 778 572 576
f 573 574 578
f 573 578 577
usemtl Cup
f 574 575 579
f 574 579 578
f 777 579 575
usemtl Turf
f 573 577 580
f 573 580 576
f 778 576 580
f 577 578 582
f 577 582 581
usemtl Cup
f 578 579 583
f 578 583 582
f 777 583 579
usemtl Turf
f 577 581 584
f 577 584 580
f 778 580 584
f 581 582 586
f 581 586 585
usemtl Cup
f 582 583 587
f 582 587 586
f 777 587 583
usemtl Turf
f 581 585 588
f 581 588 584
f 778 584 588
f 585 586 590
f 585 590 589
usemtl Cup
f 586 587 591
f 586 591 590
f 777 591 587
usemtl Turf
f 585 589 592
f 585 592 588
f 778 588 592
f 589 590 594
f 589 594 593
usemtl Cup
f 590 591 595
f 590 595 594
f 777 595 591
usemtl Turf
f 589 593 596
f 589 596 592
f 778 592 596
f 593 594 598
f 593 598 597
usemtl Cup
f 594 595 599
f 594 599 598
f 777 599 595
usemtl Turf
f 593 597 600
f 593 600 596
f 778 596 600
f 597 598 602
f 597 602 601
usemtl Cup
f 598 599 603
f 598 603 602
f 777 603 599
usemtl Turf
f 597 601 604
f 597 604 600
f 778 600 604
f 601 602 606
f 601 606 605
usemtl Cup
f 602 603 607
f 602 607 606
f 777 607 603
usemtl Turf
f 601 605 608
f 601 608 604
f 778 604 608
f 605 606 610
f 605 610 609
usemtl Cup
f 606 607 611
f 606 611 610
f 777 611 607
usemtl Turf
f 605 609 612
f 605 612 608
f 778 608 612
f 609 610 614
f 609 614 613
usemtl Cup
f 610 611 615
f 610 615 614
f 777 615 611
usemtl Turf
f 609 613 616
f 609 616 612
f 778 612 616
f 613 614 618
f 613 618 617
usemtl Cup
f 614 615 619
f 614 619 618
f 777 619 615
usemtl Turf
f 613 617 620
f 613 620 616
f 778 616 620
f 617 618 622
f 617 622 621
usemtl Cup
f 618 619 623
f 618 623 622
f 777 623 619
usemtl Turf
f 617 621 624
f 617 624 620
f 778 620 624
f 621 622 626
f 621 626 625
usemtl Cup
f 622 623 627
f 622 627 626
f 777 627 623
usemtl Turf
f 621 625 628
f 621 628 624
f 778 624 628
f 625 626 630
f 625 630 629
usemtl Cup
f 626 627 631
f 626 631 630
f 777 631 627
usemtl Turf
f 625 629 632
f 625 632 628
f 778 628 632
f 629 630 634
f 629 634 633
usemtl Cup
f 630 631 635
f 630 635 634
f 777 635 631
usemtl Turf
f 629 633 636
f 629 636 632
f 778 632 636
f 633 634 638
f 633 638 637
usemtl Cup
f 634 635 639
f 634 639 638
f 777 639 635
usemtl Turf
f 633 637 640
f 633 640 636
f 778 636 640
f 637 638 642
f 637 642 641
usemtl Cup
f 638 639 643
f 638 643 642
f 777 643 639
usemtl Turf
f 637 641 644
f 637 644 640
f 778 640 644
f 641 642 646
f 641 646 645
usemtl Cup
f 642 643 647
f 642 647 646
f 777 647 643
usemtl Turf
f 641 645 648
f 641 648 644
f 778 644 648
f 645 646 650
f 645 650 649
usemtl Cup
f 646 647 651
f 646 651 650
f 777 651 647
usemtl Turf
f 645 649 652
f 645 652 648
f 778 648 652
f 649 650 654
f 649 654 653
usemtl Cup
f 650 651 655
f 650 655 654
f 777 655 651
usemtl Turf
f 649 653 656
f 649 656 652
f 778 652 656
f 653 654 658
f 653 658 657
usemtl Cup
f 654 655 659
f 654 659 658
f 777 659 655
usemtl Turf
f 653 657 660
f 653 660 656
f 778 656 660
f 657 658 662
f 657 662 661
usemtl Cup
f 658 659 663
f 658 663 662
f 777 663 659
usemtl Turf
f 657 661 664
f 657 664 660
f 778 660 664
f 661 662 666
f 661 666 665
usemtl Cup
f 662 663 667
f 662 667 666
f 777 667 663
usemtl Turf
f 661 665 668
f 661 668 664
f 778 664 668
f 665 666 670
f 665 670 669
usemtl Cup
f 666 667 671
f 666 671 670
f 777 671 667
usemtl Turf
f 665 669 672
f 665 672 668
f 778 668 672
f 669 670 674
f 669 674 673
usemtl Cup
f 670 671 675
f 670 675 674
f 777 675 671
usemtl Turf
f 669 673 676
f 669 676 672
f 778 672 676
f 673 674 678
f 673 678 677
usemtl Cup
f 674 675 679
f 674 679 678
f 777 679 675
usemtl Turf
f 673 677 680
f 673 680 676
f 778 676 680
f 677 678 682
f 677 682 681
usemtl Cup
f 678 679 683
f 678 683 682
f 777 683 679
usemtl Turf
f 677 681 684
f 677 684 680
f 778 680 684
f 681 682 686
f 681 686 685
usemtl Cup
f 682 683 687
f 682 687 686
f 777 687 683
usemtl Turf
f 681 685 688
f 681 688 684
f 778 684 688
f 685 686 690
f 685 690 689
usemtl Cup
f 686 687 691
f 686 691 690
f 777 691 687
usemtl Turf
f 685 689 692
f 685 692 688
f 778 688 692
f 689 690 694
f 689 694 693
usemtl Cup
f 690 691 695
f 690 695 694
f 777 695 691
usemtl Turf
f 689 693 696
f 689 696 692
f 778 692 696
f 693 694 698
f 693 698 697
usemtl Cup
f 694 695 699
f 694 699 698
f 777 699 695
usemtl Turf
f 693 697 700
f 693 700 696
f 778 696 700
f 697 698 702
f 697 702 701
usemtl Cup
f 698 699 703
f 698 703 702
f 777 703 699
usemtl Turf
f 697 701 704
f 697 704 700
f 778 700 704
f 701 702 706
f 701 706 705
usemtl Cup
f 702 703 707
f 702 707 706
f 777 707 703
usemtl Turf
f 701 705 708
f 701 708 704
f 778 704 708
f 705 706 710
f 705 710 709
usemtl Cup
f 706 707 711
f 706 711 710
f 777 711 707
usemtl Turf
f 705 709 712
f 705 712 708
f 778 708 712
f 709 710 714
f 709 714 713
usemtl Cup
f 710 711 715
f 710 715 714
f 777 715 711
usemtl Turf
f 709 713 716
f 709 716 712
f 778 712 716
f 713 714 718
f 713 718 717
usemtl Cup
f 714 715 719
f 714 719 718
f 777 719 715
usemtl Turf
f 713 717 720
f 713 720 716
f 778 716 720
f 717 718 722
f 717 722 721
usemtl Cup
f 718 719 723
f 718 723 722
f 777 723 719
usemtl Turf
f 717 721 724
f 717 724 720
f 778 720 724
f 721 722 726
f 721 726 725
usemtl Cup
f 722 723 727
f 722 727 726
f 777 727 723
usemtl Turf
f 721 725 728
f 721 728 724
f 778 724 728
f 725 726 730
f 725 730 729
usemtl Cup
f 726 727 731
f 726 731 730
f 777 731 727
usemtl Turf
f 725 729 732
f 725 732 728
f 778 728 732
f 729 730 734
f 729 734 733
usemtl Cup
f 730 731 735
f 730 735 734
f 777 735 731
usemtl Turf
f 729 733 736
f 729 736 732
f 778 732 736
f 733 734 738
f 733 738 737
usemtl Cup
f 734 735 739
f 734 739 738
f 777 739 735
usemtl Turf
f 733 737 740
f 733 740 736
f 778 736 740
f 737 738 742
f 737 742 741
usemtl Cup
f 738 739 743
f 738 743 742
f 777 743 739
usemtl Turf
f 737 741 744
f 737 744 740
f 778 740 744
f 741 742 746
f 741 746 745
usemtl Cup
f 742 743 747
f 742 747 746
f 777 747 743
usemtl Turf
f 741 745 748
f 741 748 744
f 778 744 748
f 745 746 750
f 745 750 749
usemtl Cup
f 746 747 751
f 746 751 750
f 777 751 747
usemtl Turf
f 745 749 752
f 745 752 748
f 778 748 752
f 749 750 754
f 749 754 753
usemtl Cup
f 750 751 755
f 750 755 754
f 777 755 751
usemtl Turf
f 749 753 756
f 749 756 752
f 778 752 756
f 753 754 758
f 753 758 757
usemtl Cup
f 754 755 759
f 754 759 758
f 777 759 755
usemtl Turf
f 753 757 760
f 753 760 756
f 778 756 760
f 757 758 762
f 757 762 761
usemtl Cup
f 758 759 763
f 758 763 762
f 777 763 759
usemtl Turf
f 757 761 764
f 757 764 760
f 778 760 764
f 761 762 766
f 761 766 765
usemtl Cup
f 762 763 767
f 762 767 766
f 777 767 763
usemtl Turf
f 761 765 768
f 761 768 764
f 778 764 768
f 765 766 770
f 765 770 769
usemtl Cup
f 766 767 771
f 766 771 770
f 777 771 767
usemtl Turf
f 765 769 772
f 765 772 768
f 778 768 772
f 769 770 774
f 769 774 773
usemtl Cup
f 770 771 775
f 770 775 774
f 777 775 771
usemtl Turf
f 769 773 776
f 769 776 772
f 778 772 776
f 773 774 2
f 773 2 1
usemtl Cup
f 774 775 3
f 774 3 2
f 777 3 775
usemtl Turf
f 773 1 4
f 773 4 776
f 778 776 4
